<?xml version="1.0"?>
<svg xmlns="http://www.w3.org/2000/svg" xmlns:xlink="http://www.w3.org/1999/xlink" xmlns:svgjs="http://svgjs.com/svgjs" version="1.1" width="512" height="512" x="0" y="0" viewBox="0 0 74 74" style="enable-background:new 0 0 512 512" xml:space="preserve" class=""><g><g xmlns="http://www.w3.org/2000/svg" id="Numbers"><text fill="rgb(0,0,0)" font-family="ArialMT, Arial" font-size="18" transform="translate(31.994 -141.877)" svgjs:data="{&quot;leading&quot;:&quot;1.3&quot;}">9<tspan x="-5.005" y="124" svgjs:data="{&quot;leading&quot;:&quot;1.3&quot;}">19</tspan><tspan x="-5.005" y="248" svgjs:data="{&quot;leading&quot;:&quot;1.3&quot;}">29</tspan><tspan x="-5.005" y="372" svgjs:data="{&quot;leading&quot;:&quot;1.3&quot;}">39</tspan><tspan x="-5.005" y="496" svgjs:data="{&quot;leading&quot;:&quot;1.3&quot;}">49</tspan><tspan x="-5.005" y="620" svgjs:data="{&quot;leading&quot;:&quot;1.3&quot;}">59</tspan><tspan x="-5.005" y="744" svgjs:data="{&quot;leading&quot;:&quot;1.3&quot;}">69</tspan><tspan x="-5.005" y="868" svgjs:data="{&quot;leading&quot;:&quot;1.3&quot;}">79</tspan><tspan x="-5.005" y="992" svgjs:data="{&quot;leading&quot;:&quot;1.3&quot;}">89</tspan><tspan x="-5.005" y="1116" svgjs:data="{&quot;leading&quot;:&quot;1.3&quot;}">99</tspan><tspan x="-10.011" y="1240" svgjs:data="{&quot;leading&quot;:&quot;1.3&quot;}">109</tspan><tspan letter-spacing="-.074em" x="-9.343" y="1364" svgjs:data="{&quot;leading&quot;:&quot;1.3&quot;}">1</tspan><tspan x="-.668" y="1364" svgjs:data="{&quot;leading&quot;:&quot;1.3&quot;}">19</tspan><tspan x="-10.011" y="1488" svgjs:data="{&quot;leading&quot;:&quot;1.3&quot;}">129</tspan><tspan x="-10.011" y="1612" svgjs:data="{&quot;leading&quot;:&quot;1.3&quot;}">139</tspan><tspan x="-10.011" y="1736" svgjs:data="{&quot;leading&quot;:&quot;1.3&quot;}">149</tspan><tspan x="-10.011" y="1860" svgjs:data="{&quot;leading&quot;:&quot;1.3&quot;}">159</tspan><tspan x="-10.011" y="1984" svgjs:data="{&quot;leading&quot;:&quot;1.3&quot;}">169</tspan><tspan x="-10.011" y="2108" svgjs:data="{&quot;leading&quot;:&quot;1.3&quot;}">179</tspan><tspan x="-10.011" y="2232" svgjs:data="{&quot;leading&quot;:&quot;1.3&quot;}">189</tspan><tspan x="-10.011" y="2356" svgjs:data="{&quot;leading&quot;:&quot;1.3&quot;}">199</tspan><tspan x="-10.011" y="2480" svgjs:data="{&quot;leading&quot;:&quot;1.3&quot;}">209</tspan><tspan x="-10.011" y="2604" svgjs:data="{&quot;leading&quot;:&quot;1.3&quot;}">219</tspan><tspan x="-10.011" y="2728" svgjs:data="{&quot;leading&quot;:&quot;1.3&quot;}">229</tspan><tspan x="-10.011" y="2852" svgjs:data="{&quot;leading&quot;:&quot;1.3&quot;}">239</tspan><tspan x="-10.011" y="2976" svgjs:data="{&quot;leading&quot;:&quot;1.3&quot;}">249</tspan><tspan x="-10.011" y="3100" svgjs:data="{&quot;leading&quot;:&quot;1.3&quot;}">259</tspan><tspan x="-10.011" y="3224" svgjs:data="{&quot;leading&quot;:&quot;1.3&quot;}">269</tspan><tspan x="-10.011" y="3348" svgjs:data="{&quot;leading&quot;:&quot;1.3&quot;}">279</tspan><tspan x="-10.011" y="3472" svgjs:data="{&quot;leading&quot;:&quot;1.3&quot;}">289</tspan><tspan x="-10.011" y="3596" svgjs:data="{&quot;leading&quot;:&quot;1.3&quot;}">299</tspan></text></g><g xmlns="http://www.w3.org/2000/svg" id="Icons"><path d="m47 70.72h-2.97a1 1 0 0 1 0-2h2.97a1 1 0 0 1 0 2z" fill="#4c456f" data-original="#000000" style=""/><path d="m71 70.72h-17a1 1 0 0 1 0-2h16v-17.89h-6.98v9.91a1 1 0 0 1 -1 1h-50.04a1 1 0 0 1 -1-1v-9.91h-6.98v17.89h23.13a1 1 0 0 1 0 2h-24.13a1 1 0 0 1 -1-1v-19.89a1 1 0 0 1 1-1h8.98a1 1 0 0 1 1 1v9.91h48.04v-9.91a1 1 0 0 1 1-1h8.98a1 1 0 0 1 1 1v19.89a1 1 0 0 1 -1 1z" fill="#4c456f" data-original="#000000" style=""/><path d="m37.03 70.72h-2.9a1 1 0 1 1 0-2h2.9a1 1 0 0 1 0 2z" fill="#4c456f" data-original="#000000" style=""/><path d="m37 53.157a1 1 0 0 1 -.736-.323l-14.516-15.8a1 1 0 0 1 .736-1.677h8.384v-31.074a1 1 0 0 1 1-1h10.264a1 1 0 0 1 1 1v31.075h8.384a1 1 0 0 1 .736 1.677l-14.516 15.8a1 1 0 0 1 -.736.322zm-12.239-15.8 12.239 13.322 12.239-13.321h-7.107a1 1 0 0 1 -1-1v-31.075h-8.264v31.075a1 1 0 0 1 -1 1z" fill="#4c456f" data-original="#000000" style=""/></g></g></svg>
