<?xml version="1.0"?>
<svg xmlns="http://www.w3.org/2000/svg" xmlns:xlink="http://www.w3.org/1999/xlink" xmlns:svgjs="http://svgjs.com/svgjs" version="1.1" width="512" height="512" x="0" y="0" viewBox="0 0 74 74" style="enable-background:new 0 0 512 512" xml:space="preserve"><g><path xmlns="http://www.w3.org/2000/svg" d="M30.47,70.35H27.56a1,1,0,0,1,0-2h2.91a1,1,0,0,1,0,2Z" fill="#4c456f" data-original="#000000" style=""/><path xmlns="http://www.w3.org/2000/svg" d="M67.71,70.35H47.44a1,1,0,0,1,0-2H67.71A2.292,2.292,0,0,0,70,66.06V49.61a2.29,2.29,0,0,0-4.58,0V62.77a1,1,0,0,1-1,1H9.58a1,1,0,0,1-1-1V49.61a2.29,2.29,0,0,0-4.58,0V66.06a2.292,2.292,0,0,0,2.29,2.29H20.56a1,1,0,1,1,0,2H6.29A4.294,4.294,0,0,1,2,66.06V49.61a4.29,4.29,0,0,1,8.58,0V61.77H63.42V49.61a4.29,4.29,0,0,1,8.58,0V66.06A4.294,4.294,0,0,1,67.71,70.35Z" fill="#4c456f" data-original="#000000" style=""/><path xmlns="http://www.w3.org/2000/svg" d="M40.44,70.35H37.47a1,1,0,0,1,0-2h2.97a1,1,0,0,1,0,2Z" fill="#4c456f" data-original="#000000" style=""/><path xmlns="http://www.w3.org/2000/svg" d="M37,54.945a4.223,4.223,0,0,1-.84-.085,2.345,2.345,0,0,1-.3-.082l.216-.98-.355.939a3,3,0,0,1-.365-.121,2.806,2.806,0,0,1-.333-.168l-.13-.07a2.371,2.371,0,0,1-.277-.157,4.231,4.231,0,0,1-.593-.479.741.741,0,0,1-.058-.054L21.381,41.1a4.29,4.29,0,1,1,6.067-6.068L32.709,40.3V7.936a4.291,4.291,0,0,1,8.582,0V40.3l5.261-5.261A4.29,4.29,0,1,1,52.619,41.1L40.033,53.688c-.018.019-.04.039-.062.058a4.2,4.2,0,0,1-.591.477,2.461,2.461,0,0,1-.275.155l-.54-.846.41.916a2.9,2.9,0,0,1-.334.169,3.1,3.1,0,0,1-.364.12l-.139.041a2.527,2.527,0,0,1-.3.083A4.3,4.3,0,0,1,37,54.945Zm-1.653-2.7.025.022a2.49,2.49,0,0,0,.357.3l.186.1.095.053a1.128,1.128,0,0,0,.114.061,1.018,1.018,0,0,0,.133.04l.1.029.13.041a1.976,1.976,0,0,0,.96.02l.2-.062.1-.028a1.12,1.12,0,0,0,.132-.039,1.254,1.254,0,0,0,.115-.062l.1-.055.119-.062a2.072,2.072,0,0,0,.4-.3c.017-.017.036-.034.055-.051L51.205,39.689a2.29,2.29,0,0,0-1.619-3.91h0a2.277,2.277,0,0,0-1.619.671L41,43.418a1,1,0,0,1-1.707-.707V7.936a2.291,2.291,0,0,0-4.582,0V42.711A1,1,0,0,1,33,43.418L26.034,36.45A2.29,2.29,0,1,0,22.8,39.689Z" fill="#4c456f" data-original="#000000" style=""/></g></svg>
