<svg xmlns="http://www.w3.org/2000/svg" width="6.817" height="5.454" viewBox="0 0 6.817 5.454">
  <g id="photo-camera" transform="translate(0)">
    <g id="Group_62" data-name="Group 62" transform="translate(0 0)">
      <g id="Group_61" data-name="Group 61" transform="translate(0 0)">
        <path id="Path_86" data-name="Path 86" d="M6,48.053H5.291L4.9,47.46a.816.816,0,0,0-.674-.356H2.594a.816.816,0,0,0-.674.356l-.393.593H.815A.813.813,0,0,0,0,48.868v2.875a.813.813,0,0,0,.815.815H6a.813.813,0,0,0,.815-.815V48.868A.813.813,0,0,0,6,48.053ZM3.409,51.891a1.834,1.834,0,1,1,1.838-1.83A1.837,1.837,0,0,1,3.409,51.891ZM5.9,49.2H5.572a.241.241,0,0,1,0-.482h.3a.241.241,0,0,1,.252.23A.235.235,0,0,1,5.9,49.2Z" transform="translate(0 -47.104)" fill="#fcfcfc"/>
      </g>
    </g>
    <g id="Group_64" data-name="Group 64" transform="translate(2.386 1.934)">
      <g id="Group_63" data-name="Group 63" transform="translate(0 0)">
        <path id="Path_87" data-name="Path 87" d="M165.887,180.736a1.019,1.019,0,1,0,1.023,1.015A1.025,1.025,0,0,0,165.887,180.736Z" transform="translate(-164.864 -180.736)" fill="#fcfcfc"/>
      </g>
    </g>
  </g>
</svg>
