<svg id="OBJECTS" xmlns="http://www.w3.org/2000/svg" xmlns:xlink="http://www.w3.org/1999/xlink" viewBox="0 0 401.39 321.11"><defs><style>.cls-1{fill:none;}.cls-2{clip-path:url(#clip-path);}.cls-3{clip-path:url(#clip-path-2);}.cls-4{fill:#fff;}.cls-5{fill:#bd0034;}.cls-6{fill:#1a237b;}</style><clipPath id="clip-path" transform="translate(-50.28 -77.18)"><path class="cls-1" d="M429.11,240.24c-1.54-2.64-3.62-4.21-6.36-4.26-.15-.92.29-1,.05-1.83-1.46.12-2.11-.77-2.42-2.06-.25.89-.37-.33-.76-.07a7.45,7.45,0,0,1,.63,2.5c-2-.41-2.87,1.45-4.46.2.81-2.54,2.52-3.17,3-6.44-.06-.93-.89-.92-.67-2.2a.84.84,0,0,0-.8.22c-.26-2.17-1.61-2.35-3.22-1.82-.06-1,.16-1.44-.37-1.56-.11-1,.65-.18.54-1.18-.14-.08-.19-.27-.11-.62a.84.84,0,0,0-.8.23c-.35-2.54-4.65-3.44-2-6.6.59.11,1.43-.08,1.68.46.53-1.77,1.63.07,2.44-1-1.33-.18-1.63-1.05-2.7.06.49-1.85-.49-2.41.59-3a2.67,2.67,0,0,1-1.55-1.37c.59-.2-.15-.78.2-1.51.93.41,1.25-.45,1.69-1.06.2,1.26,1.09,1.67,2,2,.08-.35.08-.86.31-.89a1.54,1.54,0,0,0,1.78,1.09c.08-1.54.68-2.17.45-3.33,1.59-.49.7-2.95,1.59-4.19-.9.41-1.69-.91-2.44.45a6.3,6.3,0,0,0-1-2.54c-.44,2.42-2.39.69-2.39-.83-.66.27-1.25.71-1.88,1,0-.3-.11-.37-.11-.62.41-1.17,1-1.37,1.54-1.39-.35,0-.41-.33-.26-.93-.44.12-1.33.61-1.3-.43.53-.36,1.4.25,1.23-.5-1.11.49.32-1-.33-1.86.57-.67,1.12.1,1.71.16.35-.73,0-1,.35-1.19,1.89.54,3.2,0,4.38.41-.7-.36.24-1.47.78-1.46,0,1.27,1-.23,1.25.73-.54.69-.67.4-1.37.18-.39.87,0,1-.44,1.79.69.56.25-1.29.74-1.15.27.07.72,0,.72.37s-.52.19-.5.87c.93.1.86.71.52,1.88.53.16.41.32.83,1,.12-.57-.13-.69,0-1.23.29-.28.74-.23,1-.51-.53.41.35,1.89.83,1-.15-.32-.29-.63-.45-1,1.05.07,1.07,1.57,1.83.78-.26-.1-.13-.68-.26-.93.33.65,1.17.21,1.41-.49-.45.05-.9.57-.91-.39,1-.55.16-3.72-.48-2.18,1.56,0-.37,2.69.3.64-.58-.33-.39,1-.88.83-.05-3.35,1.36-1.44,2.2-3.46-.54.5-1.18.73-1.53-.14.18-3-1.12-4.92-2.59-5.14.84.36.91-.91,1.19-1.71-.84,0-.65-.74-.66-2.21-.62.5-.85.61-1.34-.12-.31.36-.28,1.47-.77,1.46-.48-.26-1.41-.72-.75-1.6-.81.28-1.76-.59-2.26,1a1.34,1.34,0,0,1,.49.66l-.57-.06c.85,2.46-2.19,4.31-2.57,1.9.25.07,1.37.18.8-.23q-.78.21-.45-1c.24.51.9-.06,1.08-.82-.81.24-.79-.54-1-1-1.1,1.24-2.77.34-4.24,1.43,0-.43-.24-.54-.26-.94.3,0,.66.1.65-.55-1-.39-1.34.76-2.21.71,0-.92-.58-1.39-.38,0-.84.11-1.33-.22-.95-1.61-.43.53-.48,0-.95-.09.13-.36.33-.6.65-.55.07-.25,0-.3-.15-.32,0-.26.11-.28.23-.29l.38,0c-.39.57,0,.39-.16,1.21,1.17-.38.64-.47,1.46-.79-.47-.26-.52-1-1-1.31.07-.49.55-.12.65-.55-.65-1.2-.93.89-1.5,1.09l-.95-.09c0-.46.22-1.11,0-1.23a6,6,0,0,1-.66,2.08c-.45,0-.1-.89-.45-1-.08.35-.35.3-.61.25-.24.68-1,1.82-.06,1.83.36-.67-.34-1.18.16-1.21s.44.81.61,1.28c-.54.73-1.78-.47-2.29-.21.26.05.1.79-.27.58,0-.93.45-.85.43-1.79-.83-.35-1.15.4-1.8.45.05-.39-.18-.45-.06-.93.67-.4-2.16.84-2.87,1.26,0-.3-.11-.37-.11-.62.45-.31.62-1.27,1-1.74.53-.2.92,1,1.33.13-.78,0-1.1-.67-1.36-1.35.86.22.62-1.39,1.43-2,.38.32,1.19,2.41,1.13,1.63-.14-.08-.19-.27-.11-.62,1.08,0,1.68,1.49,2.52-.07a2.32,2.32,0,0,1-2.06-.49,1.14,1.14,0,0,1,1.26-.81l1,1c.59-.85,0-2.66.82-3.29-.47-.19-1.38-1.14-1.86-.48.48.08.59.62.83,1-2.07,1.63-1.9-2.53-1.62-3.82a2.27,2.27,0,0,1-1-1.31c.18-1.3,1.48-.22,1.58-1.69-.43-.44-.76,1.14-.8.23.87-.36,0-2,1-2l-.16,1.21c1,.33.54-2.46,1.31-2.63.16.2.87.74,1-.21s-1.11.18-.65-1c.07-.5.55-.12.66-.56-.53-.3.35-.73.2-1.5-.47-.17-1.19,0-1.17-1.34-.18,1.67-.67.91-.29,2.12-.27-.41-.85-1-.37-1.56-1.83,0-3.16-1-4.72-.75-.11-1-.65-1.38-.63-2.5,0-.84.74-.22.88-.83-.22-.09-.07-.35.08-.61-.65-.38-.9-1.24-1.28-1.95,1,1,.88-1,1.87-1.05-.26,1.1,1.21,1.36,1.64.76-.54-1-1.56-.32-1.52-1.67.53.19,1.38.32,1.65-.76-1-.11-1.18-1.23-1.67-2,.43-.17,2.61,2,3.16.9-1.21-.79-1.61-2.09-1.61-3.82-.49-.47-1.08.74-1.14-.11.88.31-.41-1.65-.69-.67.54,0,.15,1.58-.39,1.49.46-.56.13-1.44.09-2.13a4.3,4.3,0,0,0-3.36.61c.62-.09.66.73,1.14.1.39,1.35,0,2.19.75,3.13-.87.12-.78-.12-1.42.48,0-.67.67-.91-.07-.92-.72,1.32-1.8.45-2.25-.52-1.07.43-4.67,2.09-4.38-.4a.76.76,0,0,0-.62.25c-.69.26.52.14.07.92-.19,0-.26.22-.42.26-.15-.42-.47-1.91-.79-1.29-.59,1.32-3.6.86-4.9,2,0-.73-1.13-1.45-1.4-1,.14,0,.44,1,.07.92-.53.34-.68-1-1-.09a.15.15,0,0,1,0,.3c-.69-.33-.58-1.64-.82-2.52,0-.89,1.15-1.4.66-2.08-.58.91-2.05-1.28-2.39-2.36.81-.11,1.65-1.72,2.41-.69.48-1.25.78-1.39,1.54-1.39-.43.5-.08.94.22,1.25,0-1.41.29-1.75.31-.9.19-1.4.83-.06.92-1.13-.88-.77-1.26.71-1.91-.18,1.14-1.17,2.47-.1,3.23-2.45a2.93,2.93,0,0,1,2,.8c-.39-1,1.08-.54,1.27-.8.35-1.19-.45-1-.1-2.15-.44.09-1.13.6-1.11-.41,1.13-.4,1.78.53,2.71-.05-.33-.49.85-1,1.16-1.42-.22-.08-.07-.35.08-.61-.41-.16-.52-.7-.84-1,.86-.33-.08-.72,0-1.53.21-.47.93.16.89-.83-.33-.33-1.31-1.17-1.53-.14,1,.21-.15,2.08-.74,2.68-.33-1.58-2.15-.35-2.16-2.65a6.41,6.41,0,0,1-.73,1.16c-.84-.62-1.4-1.11-.64-2.51-.48,0-.53-.51-.64-1,.29-.28,1.52-.19,1.45.74.48,0,.66-.51.95.09a15.92,15.92,0,0,0,1-1.74c.87.7,1-.38,1.71.16l.28-2.11c-.42-.44-.91.81-.95-.09a2.11,2.11,0,0,0,.89-2.36c.33-.33.53-.31.77.07a2.33,2.33,0,0,1,.32-2.42c-.52,0-.81-.19-.65-1-.35-.11-.46.3-.8.23a2.56,2.56,0,0,0,0-1.23c.66-.14.9-1.37,1.5-2.61-.13-.08-.18-.27-.11-.62-.85.76-.74-1.07-1.37.18a4,4,0,0,1,.32-2.42c.2.42.66.47.8-.23a2,2,0,0,0-2.06,1c-.19-.31-1.08-1-.38-1.57-.22-.81-.76-1-1.29-.43.32-1.18-1.08-.92-.34-1.86-.65-.35-.34,1.34-.92,1.14-.8-1.59-3.61-1.48-5.77-.23.12-.06.4.17.34.35-1.69-.18-3.36-3.15-5-.47-.41-.44.47-.88,0-1.22,0,.31-.39.35-.38,0,.16-.05.25-.24.27-.59.46.2.67.58.84-.53-2.52-.64-5.71-1.17-7.9-1.64-.49-.11-1.15.76-1.29-.43-.14.59.18.62.26.94-.37.24-.65.68-1.07.82-.14-1.24-1.68-.87-2.68-.24-2.11-1.39-4.14.56-5.45-1.12-1.58.85-4.65-1.94-6.57,0-.23-.05-.44-.13-.3-.64-.76-.31-.55,1.42-1.31,1.11-.45,0-.09-.89-.45-1-.63.67-1.09.55-.92,1.14-.47-.36-.49-1.26-.95-1.61-.55,1.42-1.13-.11-1.49-.44-2.59.78-5.85-.34-9.25,1.3.58.3,1.81.2.8,1.29,1-1.36,1.94-.43,2.76-1.89.49,1.1,1.76.61,2.52-.08.48.61.53.55,1.3.43-.14.59.17.62.26.94-1.38,1.71-2.66.2-4.55.81,1.94,1.39,3.19,1.07,5.26,1.09-.14.68-.1,1.13.23,1.24,1.13-1.86,4.45-.43,5.11.77,1.44-.54,3-1.73,3.67,0-.14-.76,2.63-1.72,2.52-.08-.07.5-.55.12-.65.55.45.46,1.61-.87,1.82.78,1-2.3,3.15.8,4.63-1.4.45.44.46,1,.15,1.84a19.34,19.34,0,0,1,2.44-1c.43,3.15,4.67.19,5.22,2.93-2.37.27-6.63-.31-9.82,1.23,1.19-.43,2.13,1.35,3.13-.32-.42,1.79,1.36.86,1.25,2.25-1.45-.72-4.52.79-4.8-1.66-.18,1.06.51,1,.52,1.88-1.5.21-2.06-2.44-3.81-.35.33-.93.19-.79,0-1.53a8.77,8.77,0,0,1-4.35-.7c-.62-.23-1.12-1.35-1.75-1.38s-1,.56-1.61.46-1.73-1.25-1.22-1c-.78-.34-1.85-1-2.71.06.26-1.34-1.68,0-1.37-1.35-.71,0-.93,1.13-1.84.75-.07-.83-.28-1.5-.94-1.61-1.57.31-3.2,1.45-5.24.14-.07.35-.07.86-.3.88-1.6,0-3.21,1.6-3.78-.65-.92,1.67-1.53-.1-2.29-.2-.92-.12-3.3,1.52-3-.58-.33.33-.39,1.24-.92,1.14.21-.94-.37-.89-.6-1.28-.88,2.21-2.57-.06-3.41.92-1.42-2.2-3.78.43-5.49-.81,0-.47.16-1-.27-.94,0,.71.24,1.34-.38,1.5-.89.08-1.07-.71-1.6-1.07-.08.76.24,1-.35,1.19-.42-.37-2.3-1.82-2.64-.54-2.43-.34-4.17-1-6.11-.54-.07-1.45-2.05-.44-3-.88-.53-.25-.57-1.28-1.14-1.63s-1.8.07-2.68-.24c-1.89-.68-2.56-.13-4.54-.71.1-.57.66-.15.69-.85-.67,0-.86,1-1.49,1.09-.24-1-2.33-.14-1.52-1.67-1.05-.28-1.16,1.42-2.11,1.34-.44-.13-.22-1.08-.84-1-.24.64-.6,1-1.26.8,0-.43-.16-.53.12-.9-2.66,1.19-2.78-.91-5-1.37-.05.79-.13,1.52-.73,1.16.37-1.07-1.22-1.64-1.83-2.3-.29,1.12,1,.29.57,1.58-.61-.43-.72-1-1.18.19-.14-.65.23-1.12-.38-1.55-.07.86-.19,1.64-.77,1.45.27-.84-.17-.81,0-1.52-3.11,1.55-6.65-1.28-10.78-.35-1.68-.6-4.15-2.29-5.88-.82-2.06-1.18-3.77-.48-6.11-.54-.32-.74-.67-1.16-1.26-.72.28.1,0,.5-.27.59a10.84,10.84,0,0,0-.8-1.29.87.87,0,0,1-.84.53c-.3-2.56-2.12,1.57-3.17-.88l-.15.11a5.44,5.44,0,0,1,.39-1.18A5.44,5.44,0,0,1,247,92.81c-2.18.16-4.21-1.77-5.34-3.77-.56-.27-.47.81-1,.54.17-.73-.27-.69,0-1.53a.89.89,0,0,1-1.46-.72c-1.3,1-1-.82-2.33.12l.11-.9c-2.13-.1-3.23-2.67-5.36-1.94.11-.57-.14-.68,0-1.23-1.11-.35-1.72.26-2-1.07-3.32.33-5.55-3-9.29-1.31a1.33,1.33,0,0,0-.47-1c-1.42.82-4.07.11-5.45.5a15.47,15.47,0,0,0-1,1.76c-.54,0,.55-.79-.31-.63s.5,1.16-.15,1.21a.75.75,0,0,0-.69-.66c0,1.32-1,.74-1.64.78-1.2,2.06-3.36,2.15-4.54,4.24-2.55-.68-4.21,1.58-5.89,4.14-.12-.94-.78.39-.92-.37a4.42,4.42,0,0,1,.26,2.76c-.25,0-.31.37-.61.26,0-.57.29-.65.33-1.19a3.66,3.66,0,0,1-1.71,1.39c1,.79-1.14,1.78-1.32,1.43.31,1,1.31.6,1.91.15-.09.44-.06,1.12-.33,1.19-1.21-.05-2.09-1-3.56-.88-.47.67.15,1.72-.94,1.46.23-1.21-.61-1.53.25-2.12-.83-.44-.85.77-1.6.49l.11-.91c-.57-.27-.47.8-1,.54a17.46,17.46,0,0,1-1.94-3.2c1,.65,2.14-.53,2.6.8-.45.21-1,.1-1.25.83.83.92,1.44-1.42,2.1.15,1.8-1.41,3.18,1.38,4.31-.59-1.47-.41-2.32-3.78-3.12-2.28.29-.33,1,.08.82.58s-.4.94-.88.86c-.51-1.37-.68-.29-1.87-.45.66-.8-.87-1.15.21-1.82-.35-.62-1.8.71-1.61-1,.42-.16,1.21.46,1.37-.21-.62-.14.86-.88.15-1.21-1.08,1.11-1-1.31-2.07-.46,0-.38.29-.4.3-.89-.64.29-.52.1-.92-.38-.34,1.12.66.54.39,1.56-2.09-.08-2.71.34-3.45-1.79.23,0,.54.1.61-.26-.23-.14-.34-.42-.27-.93-.88-.29-1.31.34-1.83.78-2.18-1.51-5-4-8.66-3.39.07-.6.57-.35.52-1.18a1.86,1.86,0,0,0-1.27,2.65c-.48.09-.35-.58-.92-.38l-.21,1.82c-.84-.19-1.27.42-1.52,1.42.31.63-.31,2.45.26,2.76.63-.86,1-.8,1.56-.19.15-.82,0-2.26.78-1.77-.74,1.58-.28,1.06.4,1.55-.34,1.33-1.48,1.92-2,.77l-.14,1.21a2.94,2.94,0,0,0,2.63-1c-.25.75-.78.91-1.14,1.45,1.73.69,6.74.39,5.85,4.39.7.67,1.48,1.37,2.6.81.28-1-.42-.67-.43-1.25.92-.53,1.63-.16,1.77,1.35.09-1.15,1.33-1.07,1.37-.2.28-1.09,1.19-1.06,1.37-.2-.15.05-.25.23-.26.58-.29,0-.69-.15-.8.25.54.32.64.53.66,1,.4-.39.64.07,1.06-.84-.32-.2-.9.83-1-.07.38-.58.67-1.37,1.32-1.43.79,2.31,0,3-2.34,3.49-.34-.89-.57-1.34-1.42-1-.34.73.41,1.29-.18,1.51-.57,0-.51-1.17-1.1-.39-.42,1.13.84.12.42,1.25-.86,1.31-1.39-.06-2.39.74,0-.36.13-.86-.09-.92-1.16,1-2.2.18-4.08.3.28-1-.58-.45-.43-1.25-1.14.74-2.24-.07-2.71.11a3.9,3.9,0,0,1,5.35.39c-.23-1.16-1.35-1.2-1.66-2.26-.57-.27-.47.81-1,.54-.19-1-.65-1.57.25-2.12-.76,0-.91-.18-1.67,1.1.32.31.74-.86.76.06-.46,1.28-1.32-.26-1.87-.45-.07.94.73.79.78,1.58-.76-.31-.8-.18-1.72-.12a2.55,2.55,0,0,0,0,1.23c-1.31.82-2.93-.16-3.61,1.25.12.71.64.9.78,1.58-1,.07-1.84-2-2.84-2,.33-.45,1-.19,1.56-.19-.41-1.72-1.2-.61-1.72-.12-.28-.54,0-1.82-.24-1.24-.68,0,.29,1-.3.89l-.38,0a2.45,2.45,0,0,0,0-1.83c-.13.62-.59.56-.71,1.17.48,0,.66-.53.73.36-.89.37-1.19-.31-2.18.45.22-1.06-.62-2.11-1.19-1.31.48,0,.93,0,.88.68-.71-.34-1.87.66-2.66,1.33a1.91,1.91,0,0,0,.56,1.87c.2-1-.57-.85,0-1.53.93.45,1.45.92,2.52-.12.43.68-.15,3,.45,2.78-.41,0-.21,1.33-.57,1.49.62-.1.6.81.25,1.23.63-.29.49.13,1-.23.17,1.32.37,2.61,1.17,3.14.11-.76-.61-1.78-.14-2.14.52,0,.31,1,.85,1,.44-1.56-1.94-1.83-1.36-3.15.62.06.63.92,1.46.72-.3,1.24.91,1.39,1.24,2.53-.36.16-.69-.94-.95-.07.66.57-.48.47-.49.88-.05.2.32,1,.05,1.22-1.37-.34-3.21.7-4.22,1.53.69.38,3-1.38,3.5-.36.23,0-.21,2.34-.28,2.42.63-1.11.56.81,1.07.69.08-.47.1-1.05.49-.88l-.14,1.21c-1.11.36-2-.22-2.52.12.21.08.26.36.31.63-.63.27-.56-.59-1.21.53,0-2.87-2.38-1.23-3.08-3.28.87-.11.71-1.48.67-.87-.32.57-1.44,0-1.22-1,.79-.34.35.91.84,1,.14-1.26-.42-1.63-1-1.3,0,1.15-.39,1.46-.94,1.45.14-.95-.39-1-.13-2.14-1.49.12-.82-1-1.2-1.31-.86-.33.17.8-.49.88-1.35-.15-1.71-2.1-2.88-1.74a2.64,2.64,0,0,1,.34-1.2c-.71.12-1.25-1.3-1-1.59.52-.37.29,1.44.73.36-.23-.14-.35-.42-.28-.94-.69.45-1,.19-1.08-.68-.37.79-1.79-.1-2.22-.78.1-1,.92-.63,1.13-1.45-.42,0-.57-.28-.46-1,.23,0,.53.1.61-.26-.47-.07-.92-.11-1.19.22.41,2.6-1.44,1.79-1.87,2.92-.47-.65-.73-.61-1.5-.42a1.41,1.41,0,0,1-.78,1.77c-.18,2.17-.73,4.16-1.61,3.85.22.07.16.5.09.92.34,0,1.2-.73,1.33.1-.42.54-.32-.2-1-.07.12,1-.64.19-.52,1.18.59.1,1.11.3,1,1.3,1.21-.34,1.65-1.36,2.82-1,0,.3-.2.34-.27.59.95-.23,1.9.21,3-1,0,.3.11.37.12.62-.53,1.52-.59.43-1,1.76-.35-1.23-.66.56-.84-1-.09.57-.66.16-.68.86.3.34,1,.6.43,1.26.78.12,1.26-.57,1.49.41-.58-.3-.75.21-1,.54-.12-.8-1.05-.82-.39,0-.75-.34-1.12-.35-1.52-.11.24-.08.55.92.08.92s-.46-1.14-.78-1.59c-.42.51.16,1-.52,1.19.67-.83-.4-.59-.88-.68,0,1.37-.4.67-.84.55-.57,2.06-1.42,4.89-2.8,5.89-.43-.33-.4-.12-1.11-.38-.35.16-.15,1.43-.56,1.48a1.9,1.9,0,0,0-.2-1.54c-.29.17-.17,1.17-.53,1.19-.62-1,.22-2.2-.63-2.8-.17.73.27.68,0,1.53-1.17-.4-1.9.08-2.79-.82.4-1.53-.25-1.75-.71-2.18.59-2.09.56-.7.09-2.44.29,0,.69.16.8-.24-.38-.29-.59-.8-.36-1.86.29,0,.69.16.8-.25-1,0,.08-2.51-.87-2.5.25,1.12-.59,2.85-1.41,3.86.22.06.55,0,.54.35-1.28.15-1.4,2.64-3,2.22-.24-.2.11-1.17-.23-1.24a6,6,0,0,1-2.3,3.19,8.19,8.19,0,0,1-.74-1.88,1.62,1.62,0,0,0,.64-.56c-1.08.22-1.28-1.2-.55-1.87-.83-.18-1.08.79-1.83.78.28-1-.42-.66-.43-1.25.49-1.44,1.44-.34,1.83-.79-.35-2,2.46-.72,3.1-1.91,0-2.39-1.24.1-2.29-.16a1.38,1.38,0,0,1-.17-1.85c-1.23.43-2.27,1.23-3.05-.22-.52.37.24.94-.33,1.19a1.38,1.38,0,0,1-.51-.64c.33,0,.52-.2.65-.56-.51-.13-1-.4-1.16-1.62,0,.61-1,.92-1,.24.26,0,.24-.52.46-.58,1.06.17,2,.09,2.27-1.36a18.47,18.47,0,0,0-2-4.42c.9-.06,1.09.78,1,1.3.35-.93.83.72,1-.54-.39-.7-1.15-.93-1.09-2.21,0-1,.57-.59.71-1.17-.75-.73-1.77-2-1.33-3.46-.56-.26-.46.81-1,.54-.15-1.08.76-1.9.28-2.42-.4.57-.62,1.48-1.17,1.75,0-.44-.25-.54-.27-.94.2-.59,1.11.27,1.06-.84-.4-.35-.57-1-1.24-1,0,.88.53,1.59-.4,1.81-.3-.56-.44-1.33-.74-1.89a7.71,7.71,0,0,1-.75,4.83c.59-.07.28,1,.4,1.55-.38.11-1.11-.49-1,.54.66.31.51.07.85,1,0-1.72,1.5-3.55,2-2a1.65,1.65,0,0,0-.36,1.49c.55.13.85-1.15,1,.07-.93,0,0,1,0,1.23l-.17,1.51c-.71-.17-1.76.9-2.14.15.16-.67,1,.12,1.06-.83-.56-.88-1.1-.19-1.61-1a1.48,1.48,0,0,0-.68.87c.09.48.55.49.43,1.25-.24,0-.22-.41-.53-.35l-.08.61c0,.23-.06.59.12.62,1.23-.13,2.31.17,2.54,1.4-.73-.9-.64-.06-1.72-.12l.11-.91c-.66.37-.65,0-1.34-.1.46.92.93.84.71,2.19.79-.83,1.87-.3,2.71-.11-1-.42-.65,2.2-.63,2.09.9-.3.78-2.6,1.67-1.1-.52.08-.78.68-.78,1.78.66-.17.55.67.84,1-.49,0-.73.51-1.06.84.63.67-1,.7-.36,1.5.62-.5.69-.36,1.21-.52-.18,1.4,1.23,2.14.22,3.07-.48-.5-.79,0-1.49-.42-.23.82.31.64.24,1.24a4.47,4.47,0,0,0-1.86,1.09c.21.19.17,2,0,1.83-.21-1.64-1.66-.17-2.21-.77.59.17.22,1.33-.18,1.51.5,0,1.23-.2.85,1-.62-.59-1.47-.2-2.14.16a7,7,0,0,1-.1-2.45.85.85,0,0,0-.83.55c.77.44-.19,1.5-.13,2.73-.66-.1-.74,1-1.28,1.13.21-1.46-.29-2.56.39-3.33-.68-.16-.87-.53-1.53-.11a5.15,5.15,0,0,0-1.11-3.74c-.42.51.16.95-.52,1.18-.12-.62-.79-.54-.59-1.57.54-.31.72,1,.8-.24-1.08-.33-1.34-1.3-1.92-1.67.7-.43,2.24-2.32,2.78-.71-.08.6-.57.34-.53,1.18.56.4.86-.13,1.49.41a3,3,0,0,0,.37-1.5c-.22-.06-.55,0-.54-.34.13-1.35.92-1.38,1.7-1.4-.91-1-.57-3.4-.2-4.9a2.27,2.27,0,0,0-1.49-.41c.85-1.09-.49-.68-.62-1.27.68-.54.33-.77-.06-1.22.11-.78.8-.38.91-1.16-.27-.51-.83-.66-1-1.29a5.13,5.13,0,0,1-.5,2.71c.67.26.22,2.11.74,1.88,0,.84-.74.23-.87.85.27.18.43.49.7.66.08-.44.06-1.11.33-1.19a14.56,14.56,0,0,1,.79,3.11c-1.34.26-.85-1.83-2.11-1.68.41-.51,0-.89,0-1.53-.63-.27-.38,1.21-1.06.84-.52-.32.08-1.12-.24-1.24-.49.6,0,1-.36,1.5.61-.1.82.32.62,1.27-.91.28-1.21-2.61-2-.76l.95.07c-.2.94.31,1.27-.36,1.5-.23-1.28-.68.63-1.25.82.38,1,.61.72.93,1.9-.49-.25,0,1.44-.52,1.18-.3-.16-.05-2.31-.62-1.26.43.67,0,1.28.17,1.84.58.2.86-.66.92.37-.61,1-1.52-.64-1.72-.12a4.53,4.53,0,0,1,.52,2.17c-.72,0-1.06.85-1.82.79.58-1.61-1-.45-1-1.3.34-1.2.77.1,1.56-.19-.17-.93-.31-.88.21-1.82-.91.73-1.12-.44-.59-1.56-1.18,1.39-1.75-1-3.4-.56-.09,1.73-.65.41-.76,0-.06.54.31,1.8-.25,2.12-.24,0-.22-.4-.53-.34-.18,1.13-.87,1.23-1,2.36.14.08.38,0,.35.33-.56-.4-1.4-.44-1.8-1,.6-1.45.6-4.25-.21-4.9.42-.78,1.86-1.43,1.46-2.64-.23.52-.47,1-1.06.84,0-.54.71-1.47.21-1.82-1,.8-.57,2.3-1.34,3.26a1.37,1.37,0,0,1,.4,1.55c-.56-.26-.73.27-1.18.23-.72,1.88-1,4.64-2,6,.65.22.79-1.39,1.21-.53-.09.81-.68.61-.74,1.47.29.05.66,0,.5.65-.23,0-.54-.09-.61.26.09.83.52,1.22.52,2.17-1.44,0-1.47,2.21-.51,2.71a8.56,8.56,0,0,1-1.65,2.63c-.49-1.36.22-1.76.35-3-1.36-.84-1.53,3.75-.73,3-.35.73-.72.49-1.18.22.06,1-.67.37-.71,1.17.45,0,.71.13.69.66-.28.29-.73.25-1,.54,0,2.19-.28,2.61-.59,5.14.31.47.94.52,1,1.3a2,2,0,0,0-.4,1.8.8.8,0,0,0-.79.25c-.37,1.23.26,1.21.13,2.14-.54-.07-1.27.08-1.49-.41,0,.58-.29.65-.33,1.2.55.44,1.16-.82,1.34.09-.07.91-.81,1-1,.54-.57,1.71-3.31,3.09-1.54,5.07-.27.08-.42.41-.8.25.11,1.38-.09,1.62.29,2.47-.28.05-.38.47-.64.56-.57.21-.45-.46-.92-.37-1.16,2.06-.61,6.36,1.42,4.37-.1.93-.35,1.53-.78,1.78a4.84,4.84,0,0,0-2-1.06c-1.13-3-1.8-6.7.47-9.12.83-.89,1.41,0,1.93-1.7-.88,0-1.2.37-1.69-.42-.05,2.51-2.44.27-3.22,1.29-.25-.37-.08-1.27-.63-1.26s-.69.59-1,.84c-.62-1-2-.29-3.56-.87,0-.3.2-.35.26-.59-2.07.46-3.75-1.54-5.79.2-.75-.24-1-1.12-2-1a7.48,7.48,0,0,0-.14-2.15c-3.08,3.3-2.84,11.85.86,12.57,1.6,2.61,3.71,4.12,6.45,4.12.17.92-.27,1,0,1.83,1.46-.16,2.12.72,2.46,2,.23-.9.38.32.76,0a7.35,7.35,0,0,1-.67-2.49c2,.37,2.84-1.5,4.45-.29-.76,2.56-2.45,3.22-2.86,6.5.08.93.91.91.71,2.19a.84.84,0,0,0,.8-.24c.3,2.16,1.65,2.32,3.25,1.75.08,1-.13,1.45.4,1.56.12,1-.64.18-.52,1.18.14.08.19.27.12.62a.82.82,0,0,0,.8-.25c.39,2.54,4.71,3.34,2.12,6.56-.59-.1-1.42.11-1.68-.42-.5,1.78-1.63,0-2.42,1,1.34.16,1.65,1,2.7-.11-.46,1.86.53,2.4-.54,3a2.63,2.63,0,0,1,1.58,1.33c-.59.21.15.78-.18,1.51-.93-.39-1.24.48-1.66,1.1-.23-1.25-1.13-1.65-2.08-2-.07.36-.07.87-.3.9a1.53,1.53,0,0,0-1.8-1.05c0,1.54-.64,2.19-.38,3.33-1.58.53-.64,3-1.51,4.23.89-.43,1.7.87,2.43-.5a6.13,6.13,0,0,0,1,2.51c.4-2.43,2.37-.73,2.41.79.65-.29,1.23-.74,1.85-1.09,0,.3.11.37.12.62-.39,1.18-1,1.39-1.51,1.42.35,0,.41.33.28.93.43-.13,1.31-.64,1.3.4-.53.38-1.41-.22-1.22.52,1.1-.51-.3,1,.37,1.86-.56.68-1.12-.08-1.72-.12-.33.74,0,.95-.33,1.2-1.89-.51-3.19,0-4.38-.32.71.34-.21,1.47-.75,1.47,0-1.26-1,.25-1.26-.7.53-.7.67-.42,1.37-.2.37-.89,0-1,.4-1.81-.69-.54-.22,1.3-.71,1.17-.28-.07-.72.06-.73-.36s.51-.2.49-.88c-.94-.08-.87-.68-.55-1.87-.54-.15-.42-.31-.85-1-.11.57.13.68,0,1.22-.29.29-.74.25-1,.54.52-.43-.39-1.89-.85-1l.46,1c-1,0-1.09-1.55-1.83-.74.26.1.14.68.28.93-.34-.64-1.18-.18-1.41.51.46-.06.9-.58.92.38-1,.57-.09,3.72.52,2.17-1.56,0,.32-2.7-.31-.63.58.31.37-1,.86-.86.11,3.35-1.33,1.48-2.13,3.51.52-.51,1.16-.76,1.53.11-.12,3,1.2,4.89,2.67,5.08-.83-.34-.88.93-1.16,1.74.85,0,.67.72.71,2.19.61-.52.84-.62,1.33.09.31-.37.26-1.47.75-1.47.48.24,1.42.68.78,1.58.8-.3,1.76.55,2.23-1.06a1.41,1.41,0,0,1-.5-.64l.57,0c-.89-2.44,2.11-4.36,2.53-2-.25-.06-1.37-.14-.8.25.52-.15.67.17.47.95-.24-.51-.89.08-1.06.84.8-.26.79.53,1,1,1.08-1.27,2.76-.41,4.21-1.53,0,.43.25.53.28.93-.31,0-.66-.08-.65.57,1,.36,1.33-.79,2.2-.76,0,.92.6,1.38.38,0,.84-.12,1.33.19,1,1.59.43-.54.48,0,1,.07-.12.37-.31.61-.64.57-.06.25,0,.29.16.31,0,.26-.11.28-.23.29l-.38,0c.39-.58,0-.4.14-1.22-1.15.41-.62.49-1.44.82.48.25.54,1,1,1.29-.06.5-.54.13-.64.56.68,1.19.92-.91,1.48-1.11l1,.07c0,.45-.2,1.11,0,1.22a5.92,5.92,0,0,1,.62-2.09c.46-.06.12.89.47.95.07-.35.34-.31.61-.26.22-.68.93-1.84,0-1.83-.34.67.36,1.17-.14,1.21s-.45-.8-.62-1.27c.52-.74,1.77.44,2.28.17-.26-.05-.11-.79.26-.59,0,.93-.43.86-.4,1.8.84.34,1.14-.43,1.79-.48,0,.39.19.43.08.92a14.47,14.47,0,0,0,2.84-1.32c0,.3.11.37.12.62-.45.33-.6,1.28-1,1.76-.53.21-.94-1-1.33-.1.78,0,1.11.64,1.38,1.32-.86-.2-.59,1.4-1.39,2-.38-.31-1.23-2.39-1.16-1.61.14.08.19.27.12.62-1.08,0-1.7-1.46-2.51.12a2.3,2.3,0,0,1,2.06.45,1.12,1.12,0,0,1-1.24.83l-1-1c-.58.85,0,2.66-.77,3.3.47.18,1.39,1.12,1.87.44-.48-.07-.6-.6-.85-1,2-1.67,1.94,2.49,1.68,3.79a2.22,2.22,0,0,1,1,1.29c-.16,1.3-1.47.25-1.54,1.72.43.43.73-1.15.79-.24-.86.37,0,2-1,2.06l.14-1.22c-1-.3-.51,2.48-1.27,2.66-.17-.2-.88-.72-1,.23-.15.8,1.1-.2.66,1-.06.5-.55.13-.64.56.52.3-.34.74-.18,1.51.48.16,1.19,0,1.19,1.31.15-1.67.65-.92.25-2.12.28.4.87.95.39,1.56,1.83,0,3.18,1,4.73.64.12,1,.67,1.38.67,2.49,0,.84-.74.24-.87.86.22.07.08.34-.07.6.65.37.92,1.23,1.31,1.93-1-1-.86,1-1.85,1.08.25-1.1-1.23-1.33-1.64-.73.55,1,1.55.3,1.53,1.64-.53-.17-1.38-.29-1.62.8,1,.09,1.19,1.21,1.69,1.95-.43.18-2.63-2-3.17-.84,1.22.77,1.65,2.06,1.68,3.78.49.47,1.06-.75,1.14.09-.89-.29.42,1.64.69.66-.54,0-.17-1.58.36-1.5-.45.57-.1,1.45-.05,2.13a4.21,4.21,0,0,0,3.34-.68c-.62.11-.67-.71-1.14-.08-.41-1.34,0-2.18-.79-3.1.86-.14.77.1,1.4-.51,0,.67-.65.92.08.92.7-1.34,1.79-.5,2.25.46,1.06-.44,4.63-2.18,4.38.32a.75.75,0,0,0,.6-.26c.69-.27-.51-.13-.08-.92.19,0,.25-.23.42-.27.15.42.49,1.9.8,1.28.58-1.34,3.58-.94,4.85-2.1,0,.74,1.15,1.43,1.42,1-.15,0-.46-1-.08-.92.51-.36.68.95,1,.07a.15.15,0,0,1,0-.3c.7.31.61,1.63.86,2.5,0,.89-1.12,1.42-.63,2.09.57-.91,2.07,1.25,2.42,2.32-.8.12-1.61,1.75-2.39.73-.45,1.26-.75,1.41-1.51,1.42.42-.51.06-.94-.23-1.24,0,1.41-.27,1.75-.3.9-.17,1.41-.83.08-.9,1.15.89.75,1.24-.73,1.9.14-1.11,1.2-2.45.16-3.17,2.51a2.86,2.86,0,0,1-2-.75c.41,1-1.07.57-1.25.82-.33,1.2.46,1,.13,2.15.44-.1,1.11-.62,1.11.39-1.12.42-1.78-.5-2.7.1.34.48-.83,1-1.13,1.45.23.08.08.35-.07.6.42.16.53.7.85,1-.85.35.1.72,0,1.53-.19.47-.92-.14-.87.85.34.33,1.32,1.14,1.53.11-1-.2.11-2.08.7-2.69.34,1.57,2.14.3,2.19,2.59a6.27,6.27,0,0,1,.71-1.17c.84.61,1.41,1.09.67,2.5.48,0,.54.5.65,1-.28.29-1.51.22-1.45-.72-.48,0-.65.53-1-.07a15.44,15.44,0,0,0-1,1.76c-.89-.68-1,.41-1.71-.12l-.25,2.12c.43.42.89-.84,1,.07a2.12,2.12,0,0,0-.85,2.38c-.32.33-.52.31-.76-.06a2.35,2.35,0,0,1-.29,2.42c.51-.05.81.17.66,1,.35.1.46-.31.8-.24a2.5,2.5,0,0,0,0,1.22c-.65.15-.87,1.39-1.45,2.64.14.08.19.27.12.62.84-.78.76,1.06,1.36-.2a3.9,3.9,0,0,1-.28,2.41c-.21-.41-.66-.45-.79.25a2,2,0,0,0,2-1.07c.18.29,1.08,1,.39,1.55.23.81.77.94,1.3.4-.31,1.19,1.07.91.36,1.86.65.34.31-1.35.9-1.16.82,1.58,3.61,1.41,5.73.12-.11.07-.39-.15-.34-.33,1.69.14,3.39,3.08,4.94.36.42.44-.45.89,0,1.22,0-.3.38-.35.38,0-.16.06-.25.24-.26.6-.47-.2-.68-.57-.83.54,2.52.59,5.69,1.06,7.87,1.5.5.1,1.14-.79,1.3.4.13-.59-.19-.62-.27-.94.36-.24.64-.69,1-.84.15,1.24,1.68.84,2.66.2,2.12,1.35,4.12-.64,5.44,1,1.56-.88,4.66,1.86,6.54-.13.23.05.44.12.31.63.75.3.53-1.42,1.28-1.13.45-.06.11.89.46,1,.62-.67,1.08-.56.91-1.15.46.35.5,1.25,1,1.6.53-1.43,1.12.08,1.48.41,2.57-.83,5.82.24,9.18-1.45-.58-.29-1.8-.18-.8-1.28-1,1.38-1.93.47-2.72,1.93-.5-1.09-1.76-.57-2.51.12-.48-.59-.54-.53-1.3-.4.13-.59-.18-.62-.27-.94,1.35-1.73,2.64-.24,4.52-.88-2-1.36-3.19-1-5.25-1,.13-.69.08-1.14-.24-1.24-1.1,1.88-4.43.5-5.1-.68-1.42.56-3,1.78-3.65,0,.15.75-2.59,1.76-2.5.12.06-.51.54-.13.64-.57-.46-.44-1.6.9-1.83-.74-.91,2.32-3.14-.74-4.59,1.49-.45-.43-.46-1-.16-1.84a17.91,17.91,0,0,1-2.43,1c-.46-3.14-4.64-.1-5.23-2.82,2.36-.33,6.6.18,9.76-1.42-1.18.46-2.14-1.31-3.12.38.4-1.79-1.35-.83-1.27-2.23,1.46.7,4.49-.87,4.8,1.57.16-1.06-.52-1-.54-1.87,1.49-.24,2.08,2.4,3.8.28-.32.93-.19.79,0,1.53a8.73,8.73,0,0,1,4.34.62c.61.22,1.13,1.33,1.76,1.35s1-.58,1.59-.49,1.74,1.22,1.22,1c.79.32,1.86.92,2.7-.11-.24,1.34,1.67-.08,1.38,1.32.71,0,.91-1.14,1.82-.78.08.83.3,1.5,1,1.6,1.55-.34,3.16-1.5,5.2-.23.07-.35.07-.85.3-.89,1.58,0,3.16-1.65,3.76.59.89-1.68,1.52.08,2.28.17.92.1,3.26-1.57,3,.53.33-.34.37-1.24.9-1.15-.2.94.38.88.62,1.26.84-2.22,2.55,0,3.38-1,1.44,2.17,3.75-.5,5.47.71,0,.48-.15,1.05.28.94,0-.71-.25-1.33.36-1.5.89-.1,1.07.69,1.61,1,.06-.76-.25-1,.33-1.2.42.37,2.3,1.79,2.63.5,2.42.31,4.16,1,6.08.46.09,1.45,2.05.41,3,.84.52.24.57,1.27,1.15,1.61s1.79-.1,2.66.2c1.88.66,2.55.1,4.52.65-.09.57-.65.16-.68.86.67,0,.85-1,1.48-1.11.25,1,2.32.1,1.53,1.65,1,.27,1.13-1.44,2.08-1.37.44.13.23,1.08.84,1,.24-.64.6-1,1.25-.82,0,.44.17.53-.11.91,2.64-1.23,2.78.87,5,1.29,0-.79.12-1.51.72-1.16-.36,1.06,1.22,1.61,1.84,2.27.27-1.13-1-.28-.58-1.57.61.42.73,1,1.17-.21.15.64-.22,1.12.39,1.55.07-.87.17-1.65.75-1.47-.26.84.18.81,0,1.53,3.08-1.6,6.62,1.18,10.71.2,1.68.58,4.15,2.25,5.85.76,2.06,1.16,3.76.44,6.08.47.32.74.68,1.16,1.26.71-.29-.09,0-.5.26-.59a11.57,11.57,0,0,0,.8,1.28.86.86,0,0,1,.84-.54c.18,1.52.89.67,1.66.24a10.3,10.3,0,0,1-.55,1.7,5.5,5.5,0,0,1,2.23,3.56c2.17-.14,4.16,1.81,5.26,3.82.55.28.47-.8,1-.52-.17.72.27.69,0,1.53a.88.88,0,0,1,1.44.74c1.31-1,1,.82,2.32-.1l-.12.9c2.12.12,3.18,2.71,5.3,2-.11.57.13.69,0,1.23,1.09.36,1.71-.24,2,1.09,3.3-.29,5.48,3.09,9.22,1.42a1.33,1.33,0,0,0,.45,1c1.42-.8,4.05-.06,5.43-.42a14.57,14.57,0,0,0,1-1.75c.53.05-.56.79.3.64s-.48-1.17.16-1.21a.76.76,0,0,0,.68.67c.05-1.32,1-.73,1.64-.76,1.22-2,3.38-2.1,4.58-4.17,2.52.72,4.2-1.52,5.91-4.05.11.94.78-.38.91.38A4.52,4.52,0,0,1,300,295c.24,0,.31-.36.61-.25,0,.58-.3.65-.35,1.19a3.64,3.64,0,0,1,1.72-1.37c-1-.8,1.16-1.76,1.34-1.41-.3-1-1.3-.61-1.9-.17.09-.45.08-1.12.34-1.19,1.2.07,2.06,1.06,3.54.93.47-.66-.13-1.71.95-1.44-.25,1.2.59,1.53-.28,2.11.82.45.86-.76,1.6-.46l-.12.9c.56.28.48-.79,1-.52a18.38,18.38,0,0,1,1.88,3.22c-.94-.66-2.14.51-2.58-.84.45-.19,1.05-.08,1.26-.8-.82-.94-1.45,1.39-2.09-.18-1.81,1.38-3.15-1.43-4.3.52,1.46.43,2.26,3.81,3.07,2.33-.29.32-.95-.09-.8-.59s.41-.94.88-.85c.49,1.37.68.3,1.86.48-.67.79.84,1.16-.24,1.81.34.62,1.8-.68,1.59,1.06-.42.14-1.2-.49-1.37.18.62.16-.86.87-.16,1.21,1.09-1.09,1,1.32,2.05.49-.06.38-.3.4-.31.89.64-.28.52-.1.91.39.35-1.11-.65-.55-.37-1.56,2.08.11,2.71-.31,3.41,1.83-.23,0-.53-.1-.61.25.22.15.34.43.26.94.87.3,1.31-.32,1.83-.75,2.15,1.54,4.88,4.07,8.57,3.53-.09.6-.57.33-.54,1.17a1.86,1.86,0,0,0,1.3-2.63c.48-.08.34.59.91.39l.24-1.82c.83.21,1.27-.39,1.53-1.38-.3-.64.35-2.45-.21-2.77-.64.85-1,.78-1.56.16-.16.82,0,2.26-.81,1.76.77-1.57.3-1.06-.37-1.56.37-1.32,1.5-1.89,2-.73l.16-1.21a2.91,2.91,0,0,0-2.63,1c.26-.74.8-.89,1.15-1.42-1.71-.73-6.7-.51-5.75-4.49-.69-.68-1.45-1.39-2.58-.85-.29.95.41.67.41,1.26-.92.51-1.62.13-1.74-1.38-.1,1.15-1.34,1-1.37.18-.29,1.09-1.2,1.05-1.37.19.16-.06.26-.24.27-.59.3,0,.69.17.8-.24-.53-.32-.63-.53-.64-1-.41.38-.63-.08-1.07.82.32.21.91-.81,1,.09-.39.57-.69,1.35-1.34,1.4-.75-2.31.06-3,2.38-3.45.32.9.55,1.35,1.4,1.05.35-.73-.39-1.31.2-1.51.58,0,.5,1.17,1.1.4.43-1.12-.84-.13-.41-1.26.88-1.29,1.39.09,2.4-.7,0,.36-.15.85.07.92,1.17-1,2.2-.14,4.07-.24-.3.95.57.47.41,1.26,1.15-.72,2.23.11,2.7-.06a3.87,3.87,0,0,1-5.32-.49c.21,1.17,1.32,1.23,1.62,2.29.55.28.48-.79,1-.51.17,1,.62,1.57-.28,2.11.75.06.9.2,1.68-1.07-.32-.32-.75.84-.76-.07.48-1.28,1.31.28,1.86.47.08-.93-.72-.79-.75-1.59.75.33.79.2,1.71.15a2.52,2.52,0,0,0,0-1.22c1.32-.81,2.92.2,3.62-1.2-.11-.71-.63-.9-.75-1.59,1-.05,1.79,2,2.8,2.09-.34.44-1,.17-1.56.16.38,1.72,1.18.63,1.71.15.27.55,0,1.82.22,1.25.68,0-.27-1,.31-.89l.38,0a2.49,2.49,0,0,0-.05,1.83c.14-.61.59-.54.73-1.15-.48,0-.67.52-.72-.38.88-.35,1.18.34,2.17-.41-.23,1.06.58,2.12,1.17,1.33-.48,0-.93,0-.87-.69.71.35,1.88-.64,2.67-1.29a1.9,1.9,0,0,0-.52-1.87c-.22.94.55.85,0,1.52-.92-.46-1.43-.94-2.51.08-.42-.69.19-3-.4-2.79.4,0,.23-1.32.58-1.47-.61.09-.58-.82-.22-1.25-.64.29-.49-.13-1,.22-.16-1.32-.34-2.61-1.12-3.16-.13.76.57,1.79.1,2.15-.51,0-.29-1-.83-1-.46,1.55,1.9,1.86,1.31,3.17-.62-.07-.61-.92-1.44-.74.31-1.24-.89-1.41-1.2-2.55.36-.15.67,1,.95.09-.65-.59.48-.46.5-.88,0-.2-.31-1,0-1.22,1.35.36,3.2-.64,4.23-1.45-.69-.4-3,1.32-3.5.29-.23,0,.25-2.33.32-2.41-.65,1.1-.55-.82-1.06-.71-.08.47-.12,1-.51.87l.16-1.21c1.12-.34,2,.26,2.52-.07-.21-.08-.26-.37-.3-.64.63-.26.55.6,1.22-.5,0,2.86,2.35,1.26,3,3.33-.87.09-.74,1.47-.69.85.33-.56,1.44.05,1.21,1-.8.32-.34-.92-.83-1-.15,1.25.39,1.63,1,1.31,0-1.15.41-1.45,1-1.44-.16,1,.37,1.05.1,2.15,1.48-.1.8,1,1.17,1.32.85.35-.16-.8.5-.86,1.34.17,1.67,2.13,2.84,1.78a2.67,2.67,0,0,1-.35,1.19c.7-.1,1.22,1.33.94,1.62-.53.35-.27-1.45-.72-.38.22.15.34.43.26,1,.69-.44,1-.18,1.06.7.38-.79,1.79.13,2.2.81-.11,1.05-.93.61-1.15,1.43.42,0,.57.29.45.95-.23,0-.53-.1-.61.25.46.08.91.13,1.18-.19-.36-2.61,1.47-1.77,1.92-2.89.45.66.71.62,1.48.44a1.42,1.42,0,0,1,.81-1.75c.22-2.16.8-4.14,1.66-3.82-.21-.08-.14-.5-.07-.93-.33,0-1.21.72-1.33-.12.44-.53.32.21.95.09-.1-1,.65-.18.54-1.17-.59-.11-1.1-.32-1-1.32-1.21.33-1.66,1.33-2.82,1,0-.3.2-.34.27-.59-.94.22-1.88-.25-3,1,0-.3-.1-.37-.11-.62.55-1.52.6-.42,1-1.74.34,1.23.67-.55.83,1,.1-.57.66-.15.69-.85-.29-.34-.95-.62-.41-1.26-.77-.14-1.26.54-1.48-.44.57.31.75-.2,1-.52.11.8,1,.83.38,0,.75.36,1.12.37,1.52.14-.24.07-.54-.93-.07-.92s.44,1.14.75,1.6c.43-.5-.13-1,.54-1.18-.67.81.39.6.87.69.05-1.37.41-.66.84-.53.6-2.05,1.51-4.87,2.9-5.85.42.35.39.14,1.1.41.35-.15.17-1.43.58-1.48a1.89,1.89,0,0,0,.18,1.55c.29-.16.18-1.16.54-1.18.61,1-.25,2.2.59,2.81.17-.72-.26-.69,0-1.53,1.16.42,1.9,0,2.77.87-.42,1.53.21,1.75.67,2.2-.63,2.08-.57.69-.13,2.43-.29,0-.69-.17-.8.23.37.3.57.81.33,1.87-.29,0-.69-.17-.8.23,1,0-.13,2.51.82,2.52-.23-1.13.63-2.84,1.47-3.84-.22-.07-.55,0-.53-.35,1.27-.13,1.44-2.62,3-2.17.24.21-.13,1.16.22,1.24a5.92,5.92,0,0,1,2.34-3.14,8.34,8.34,0,0,1,.71,1.9,1.66,1.66,0,0,0-.65.54c1.08-.2,1.26,1.22.52,1.88.82.2,1.09-.77,1.83-.74-.29.95.41.67.41,1.26-.51,1.42-1.44.3-1.83.75.31,2-2.47.67-3.13,1.85,0,2.39,1.24-.07,2.28.21a1.36,1.36,0,0,1,.14,1.84c1.24-.4,2.29-1.18,3,.29.52-.36-.22-.95.35-1.19a1.42,1.42,0,0,1,.49.65c-.33-.05-.52.19-.65.55.5.13,1,.41,1.13,1.63,0-.6,1-.89,1-.21-.25,0-.25.51-.46.57-1.06-.19-2-.13-2.29,1.31a18.66,18.66,0,0,0,1.9,4.46c-.89,0-1.07-.8-1-1.32-.36.93-.81-.74-1,.52.38.71,1.13,1,1.05,2.24,0,1-.57.58-.73,1.15.74.74,1.74,2,1.27,3.48.56.28.48-.8,1-.52.12,1.08-.79,1.89-.32,2.42.4-.57.64-1.47,1.19-1.73,0,.44.25.54.26.94-.21.59-1.11-.29-1.07.82.39.36.55,1,1.21,1,0-.87-.5-1.6.43-1.8.29.57.42,1.34.71,1.91a7.74,7.74,0,0,1,.83-4.82c-.59.06-.26-1-.37-1.56.38-.1,1.09.52,1-.51-.65-.33-.5-.08-.83-1-.05,1.72-1.56,3.52-2,2a1.63,1.63,0,0,0,.39-1.49c-.54-.14-.86,1.14-.95-.09.93,0,.08-1,0-1.23l.2-1.5c.71.18,1.77-.87,2.14-.12-.17.68-1-.13-1.07.82.54.89,1.09.2,1.58,1.07a1.52,1.52,0,0,0,.7-.86c-.09-.49-.55-.5-.41-1.26.24,0,.21.41.53.36l.08-.61c0-.23.07-.59-.11-.62-1.23.1-2.3-.21-2.5-1.45.7.91.63.08,1.71.16l-.12.91c.65-.37.64,0,1.33.12-.45-.93-.91-.86-.67-2.21-.8.82-1.87.27-2.7.06,1,.45.68-2.18.66-2.08-.91.29-.83,2.59-1.68,1.07.51-.06.78-.66.81-1.76-.67.15-.54-.68-.83-1,.49,0,.74-.49,1.07-.82-.61-.68,1-.68.39-1.49-.63.49-.7.35-1.22.5.21-1.4-1.18-2.16-.17-3.07.48.51.8,0,1.48.44.25-.81-.29-.64-.21-1.24a4.59,4.59,0,0,0,1.87-1.05c-.21-.19-.13-2,0-1.83.19,1.64,1.66.2,2.2.81-.59-.19-.2-1.34.2-1.5-.5-.06-1.23.16-.83-1,.61.61,1.46.23,2.13-.11a6.93,6.93,0,0,1,.06,2.45.87.87,0,0,0,.84-.53c-.76-.46.22-1.5.17-2.74.66.12.76-1,1.31-1.1-.24,1.46.24,2.57-.45,3.32.67.17.86.55,1.52.14a5.16,5.16,0,0,0,1,3.76c.43-.5-.14-.95.54-1.17.11.62.78.55.56,1.58-.54.31-.69-1-.8.23,1.07.35,1.31,1.33,1.89,1.71-.71.41-2.28,2.27-2.78.66.08-.6.57-.34.54-1.18-.55-.41-.86.12-1.48-.44a3,3,0,0,0-.39,1.5c.21.06.54,0,.53.35-.16,1.35-.94,1.35-1.73,1.37.89,1.05.51,3.4.12,4.89a2.29,2.29,0,0,0,1.48.45c-.87,1.07.48.69.6,1.28-.69.52-.34.76,0,1.22-.12.78-.8.36-.92,1.14.26.52.81.68,1,1.31a5,5,0,0,1,.55-2.7c-.67-.27-.19-2.12-.71-1.9,0-.84.75-.21.88-.83-.26-.19-.42-.49-.68-.68-.09.45-.08,1.12-.35,1.19a14.42,14.42,0,0,1-.74-3.12c1.35-.23.82,1.85,2.08,1.72-.42.5,0,.89,0,1.53.62.28.41-1.21,1.07-.82s-.09,1.11.22,1.24c.5-.59,0-1,.39-1.49-.61.09-.81-.34-.59-1.28.9-.26,1.15,2.63,2,.8l-1-.09c.23-.94-.28-1.27.4-1.49.2,1.28.68-.62,1.26-.8-.37-1-.6-.73-.9-1.91.49.25.05-1.44.54-1.18.29.17,0,2.31.6,1.28-.42-.68.07-1.29-.14-1.85-.58-.21-.87.64-.91-.39.63-1,1.5.67,1.71.16a4.63,4.63,0,0,1-.48-2.18c.72,0,1.07-.83,1.84-.75-.62,1.6,1,.46,1,1.32-.36,1.19-.76-.12-1.55.15.15.94.29.89-.25,1.81.92-.7,1.11.48.56,1.59,1.21-1.38,1.73,1,3.38.62.12-1.73.66-.39.76.07.07-.54-.28-1.81.28-2.12.25,0,.22.41.53.36.2-1.14.89-1.21,1.09-2.35-.14-.08-.38,0-.34-.33.55.41,1.39.47,1.78,1.08-.64,1.43-.69,4.23.11,4.9-.43.77-1.88,1.39-1.5,2.61.24-.51.49-1,1.07-.82,0,.54-.74,1.46-.25,1.81,1-.77.62-2.29,1.4-3.23a1.38,1.38,0,0,1-.37-1.56c.55.27.73-.24,1.18-.2.76-1.87,1.11-4.61,2.14-5.91-.64-.24-.82,1.37-1.22.5.11-.81.69-.6.77-1.46-.29-.05-.66,0-.49-.65.23,0,.54.1.61-.25-.07-.83-.49-1.24-.47-2.18,1.43.06,1.5-2.18.55-2.7a8.5,8.5,0,0,1,1.7-2.6c.46,1.38-.25,1.76-.41,3,1.35.86,1.6-3.72.78-3,.37-.72.73-.47,1.19-.2,0-1,.68-.35.73-1.15-.45,0-.71-.14-.68-.67.29-.29.74-.24,1-.52,0-2.2.33-2.6.69-5.13-.3-.47-.93-.54-1-1.32a2,2,0,0,0,.43-1.79.84.84,0,0,0,.8-.23c.39-1.23-.24-1.21-.1-2.15.55.09,1.27,0,1.49.45,0-.58.3-.65.35-1.19-.54-.46-1.18.79-1.33-.13.08-.9.82-1,1-.51.6-1.7,3.36-3,1.64-5,.27-.08.42-.4.8-.23-.09-1.39.11-1.62-.25-2.47.28,0,.39-.47.65-.55.58-.21.44.47.91.39,1.2-2,.74-6.35-1.33-4.41.11-.92.38-1.52.81-1.76a4.91,4.91,0,0,0,2,1.11c1.08,3,1.67,6.73-.64,9.1-.85.88-1.41,0-2,1.66.88,0,1.2-.34,1.68.45.09-2.5,2.44-.21,3.24-1.22.24.38.06,1.28.6,1.28s.7-.58,1.07-.82c.61,1,1.94.34,3.54.95,0,.29-.2.34-.27.58,2.08-.41,3.72,1.62,5.78-.07.75.26,1,1.15,2,1.1a7,7,0,0,0,.09,2.15C432.88,249.6,432.81,241.05,429.11,240.24Zm-8.63-50.61c-.55.73-1.13.94-1.56.15C419.5,188.73,419.67,189.65,420.48,189.63Zm-4.42-.11c.22.11.77-.81.31-.89.47-.65,1.3.41,1.64.77-.24,1.37-1.31.11-1.53-.15,0,1,.75,1-.05,1.83.66.72,2.12-.45,1.89,1.71-1.27,0-2.87.48-3.46-1.55-.29-.31-1-.08-.83-1,.5.05,1.23-.17.83,1,.24-.67.88-.46,1.27-.8-.68-.81-1.65-1.54-2.63-.55C413.38,188,415.59,188.34,416.06,189.52Zm-1.8-3.83a.87.87,0,0,1-.91-.4C413.51,184.37,414.46,184.76,414.26,185.69Zm-10.54-25.12a.87.87,0,0,1,.91.38c0,.71-.59.29-.69.86C403.61,161.71,403.58,161.25,403.72,160.57Zm-1,1.74c-.49,0-.53-.54-.88-.7C402.13,160.5,402.92,161.35,402.72,162.31ZM402,147.57c-.59-.12-.68-.85-1-1.31C401.45,144.82,402.5,147,402,147.57Zm-15.13-15.46c.56.07.44,1,.79,1.3,0,1-.9.14-1.07.82C386.26,134.15,386.94,133,386.85,132.11Zm3.71-19.21.57,0c0,.59-.76,1.25,0,1.23-.11.4-.51.2-.8.23C390.79,113.86,390.48,113.66,390.56,112.9Zm-4.12,10.62c-.66.31,0-1-.68-.68a.87.87,0,0,1,.84-.53Zm1.92-1.35c-.64-.89-.69-2.52-1.28-3.48.82-.49,1.16-.94,1.76-.14.24-.09.56-.49.27-.59-.38-.69.6.14.73.37C389.2,120.12,389.11,121.07,388.36,122.17Zm.34-5.47c-.35-.28.33-1.58.47-2.1.62-.16.66.38,1.11.41C389.82,115.71,389,115.73,388.7,116.7Zm.38-5.77c.38,0,.13.85.68.67a3.51,3.51,0,0,1-1.26.8C388.48,111.46,389.21,112.09,389.08,110.93Zm-2.21-.82c.2.46,1.52-.3,1.84-.74a2.12,2.12,0,0,1-2.38,1.91C386.45,110.51,387.27,110.94,386.87,110.11Zm-.07,6.41c-.17,1.34-.38,2.56-1.28,2.33C386.43,118.31,385.46,116.15,386.8,116.52Zm-39.32-10.93c-.89-.17-1.38-1.15-2,.13-1-1.75,1.24-2,1.77-1.67-.2-.14-.32,1.3.15.31C347.7,104.65,347.34,104.81,347.48,105.59Zm2.14-.11c1.18,0,2.78-1,3.7-.28C352.5,106.58,350.21,106.85,349.62,105.48Zm5.5-.72c.12-.77.81-.65,1-.22C355.88,105.05,355.35,105.26,355.12,104.76ZM172.81,87.82c.25-.91-.06-1.11,0-1.82l.77,0c-.29,1,.57.47.65,1C173.64,86.88,173.82,88,172.81,87.82Zm2.4-.73c.08-1,.61-1,1.1-1.15A1.38,1.38,0,0,1,175.21,87.09Zm-24.93,23.79c.25-1.1,1-.8,1.18-.22C151.36,111.33,150.63,110.73,150.28,110.88Zm2.23-2.58c-.75-.5-2.23,1-2.15-1.38.5,0,1.16.37,1.06-.84.6-.17.66.36,1.11.39C152.28,107.38,152.59,107.58,152.51,108.3Zm-25.34-4a9,9,0,0,1-.47,2.41c-.75-.55-.67-1.16-1.39-1.32C125.65,104.46,126.39,104.34,127.17,104.3ZM125,98c.29-1.35.65-.42,1.4-.5C126.23,99.06,125.82,97.8,125,98ZM80.57,201.32c.54-.74,1.11-1,1.56-.19C81.57,202.2,81.39,201.28,80.57,201.32Zm4.42,0c-.23-.1-.76.83-.3.9-.46.66-1.3-.38-1.64-.73.21-1.37,1.3-.14,1.52.11-.06-1-.77-.94,0-1.83-.67-.7-2.11.5-1.92-1.66,1.27-.05,2.85-.54,3.48,1.47.3.3,1,.06.84,1-.5,0-1.22.19-.84-1-.22.68-.87.48-1.25.83.69.79,1.67,1.5,2.63.49C87.69,202.76,85.47,202.51,85,201.33Zm1.86,3.8a.88.88,0,0,1,.92.37C87.63,206.43,86.67,206.06,86.85,205.13ZM97.79,230a.87.87,0,0,1-.92-.37c0-.7.59-.29.68-.86C97.88,228.88,97.92,229.34,97.79,230Zm1-1.76c.48,0,.54.53.88.68C99.37,230.06,98.57,229.23,98.76,228.26Zm1,14.72c.59.11.69.84,1,1.29C100.31,245.72,99.23,243.54,99.74,243Zm11.07-32.36a1.37,1.37,0,0,1,.2.64c-.2.2-.36.22-.5.15C110.54,210.94,110.66,210.71,110.81,210.62Zm-7.53-74.49c0,1.18-1,1.1-.76,0Zm-.54-3.69a2.89,2.89,0,0,1,0,1.52c-.83.29-.67-.69-1.26-.7A1.92,1.92,0,0,1,102.74,132.44Zm-5.58,1.73c.61-.18.66.36,1.11.38a4.79,4.79,0,0,1-1.36,1.74c0,1.41.69-.42.73.36,0,1.16-1,.31-1.4.5.21-1.3-.84-1-.71-2.18C96.25,135.07,97,135.26,97.16,134.17Zm-7,22.08c-.7-2,.16-3.06-.55-5.23.82.42.58-1.31,1.44-.81a2.78,2.78,0,0,0-.28,2.42c.66-.27.94-.86,1.33.1-.35,1.32-.9.31-1.44.81-.07.78.66.54.85,1A2.19,2.19,0,0,1,90.19,156.25Zm3.62,51.82c.47-.09.35.58.91.37C94.6,209.34,93.5,209.17,93.81,208.07Zm1,1.6c-.33,2.33-1.45.05,0,0Zm1.64-49c-1.3-1-3.07.5-4.28-1.22.12-1,.23-2-.56-1.87.47-1,.15-1.46.32-2.73.52.28.57,1.16,1,1.6.93-1.12,1.77,0,2.2-.76.5.31.49,1.26.52,2.17.76-.64,1.18-.41,1.23,1-.3.37-.76.35-.73-.36C95.44,159.17,96.86,159.38,96.41,160.66Zm5.23-2.06c0,.35.32.28.54.34-1.71,2.74-2.16-.25-4.71.88a11.08,11.08,0,0,1-.11-2.44c-.21.18-.27.67-.64.56.78-1.49-.36-1.67-.22-3.07,2.14,1.08,5.82-.27,6.39,2.9.62-.36,1-.24,1.3.4.6-.16-.1-.66.14-1.21a3.25,3.25,0,0,1,1.28,2.23C103.67,158.82,102.92,159.3,101.64,158.6Zm1.84,62.07-.76,0,.14-1.21C103.47,219.31,103.68,219.73,103.48,220.67ZM103,210l-.14,1.21c-.22-.07-.35,0-.42.27C102,211.19,102.55,209.71,103,210Zm-2,31.89c-.47,0-.53-.51-.87-.67.15-1.13,1.93,0,1.39-.51.27-.73.71.44.66,1-.21.3-1,.21-.88-.67C101.09,241,101.1,241.5,101,241.85Zm.33,2.16c0-.52.21-.56.45-.58a1.41,1.41,0,0,0-.5-.64c.11-.77.79-.67,1-.23C101.94,243,102,244.12,101.35,244Zm.55,1.87c.68-.19.76.4,1.07.7C102.72,247.2,101.54,246.89,101.9,245.88ZM103,233.45c-.64.22-.53-.52-.88-.68C102.31,232.09,103.29,232.57,103,233.45Zm2.09-8.09c-.76,0,.12-.46-.28-.93-.69.32-1.79,0-2.12.15-.09-.92.48-.51.83-.55,0-1.22-.79-1.39-1.77-1.35.27-1,.8-1.15.79-1.77.52.43,0,.69,1.1.38-.13.62-.58.56-.71,1.17,1-.87,2.1-1.23,3.12-.38a6.58,6.58,0,0,0-2.46,1.34c.55.75,3-.78,3.13,1.14C106.07,225.25,105.44,223.94,105.05,225.36Zm4.09-2.14c-.79-.29-1-.57-.87.85-.52-.24-.57-1.57-1.11-.38-.66.08-.46-.95-.81-1.28.55-.26,1-.79,1.63-.8C107.25,224.05,109.27,221.45,109.14,223.22Zm2.07-6.26c-.52-.46-.61-1.45-1.12-1.91-.34-.06-.45.34-.8.25a1.89,1.89,0,0,0,.2,1.54c.3-.12,0-.4.11-.91.34,0,.36.4.73.36,0,.94-.7.32-.56,1.48.13.94.78-.39.92.37-.14,1.1-1.36,0-1.32,1.43-.61.18-.66-.35-1.11-.38-.3.89.36.56.69.66l-.14,1.21a2.39,2.39,0,0,1-1.49-.41c-.17.09-.6.79-.34.91a2.37,2.37,0,0,1-2.48-1.42c-.67,0,.19,1.36-.33,1.19a5.27,5.27,0,0,1-.25-2.77c1.19.38,1.75,1.55,2.83,2-.06-.94-.77-1.06-1.38-1.32.49-1.09,0-.76-.43-1.25.51-1.47,1.45-.5,2.39-.74-.24-1.13-1.68-1.1-2.82-.51,0-1,.66-.64.59-1.79-.34-.56-.55-.06-1.14-.09.14-1.21,1.09-.76,1.82-.77-.4.17-.77,1.33-.18,1.51.84-1.18,1.66-.8,2.72-1.94-.59-.94-1.41.85-2.35.44.51-.93-.25-.08-.47-.95.13-1,.44-1.61,1-1.76-.11.26-.23.53-.45.58,1.86,1.2,3.06,0,3.74.88l-.21,1.82c.74-.54.84.2,1.49.41C110.42,216.33,111.39,215.71,111.21,217Zm5-89.35-.57,0,.21-1.81C116.2,126.06,116.31,126.69,116.19,127.61Zm2.26-2.89c-.53-.18-.41-1.18-.55-1.86l-1.15-.09c.09-.54-.16-.65,0-1.22.68.33.93,1.22,2,1.06C118.56,123.51,119.21,124.51,118.45,124.72Zm-3.4,133.4c-.55-.05-.45-1-.81-1.27,0-1,.9-.17,1.06-.84C115.61,256.08,115,257.26,115.05,258.12Zm-3.39,19.29-.57,0c0-.59.73-1.27,0-1.23.11-.4.5-.21.79-.24C111.41,276.45,111.73,276.65,111.66,277.41Zm3.93-10.71c.66-.32,0,1,.69.67a.89.89,0,0,1-.83.55Zm-1.89,1.4c.66.87.72,2.5,1.33,3.45-.81.5-1.14,1-1.75.17-.23.1-.55.51-.26.6.39.68-.6-.13-.73-.36C112.9,270.16,113,269.2,113.7,268.1Zm-.25,5.47c.35.27-.31,1.59-.44,2.1-.61.18-.66-.36-1.11-.38C112.35,274.59,113.13,274.54,113.45,273.57Zm-.29,5.78c-.38,0-.15-.85-.69-.66a3.39,3.39,0,0,1,1.24-.83C113.75,278.8,113,278.18,113.16,279.35Zm2.21.77c-.21-.46-1.51.33-1.82.78a2.14,2.14,0,0,1,2.34-2C115.78,279.71,115,279.3,115.37,280.12Zm0-6.41c.14-1.34.33-2.57,1.23-2.35C115.68,271.91,116.69,274.05,115.35,273.71Zm6-31.61c0-.25.1-.28.22-.28l.07-.61c.46.35.5,1.25,1,1.6,0,.44-.91.9-.1.91C120.51,245.78,121.42,241.94,121.34,242.1Zm1,4.35c.66-.46.65,1.19.92.37.53.31-.5.42-.33,1.2A1.88,1.88,0,0,1,122.36,246.45Zm-2.65,4.69c.75-.08.71-.28,1.1.39C120.7,252.44,119.36,252.31,119.71,251.14Zm-2.81,25.73c-.46-.83.73-1.48,1.47-1.11C118.28,276.94,117.15,276,116.9,276.87Zm2.47.18c.11-.76.7-.55,1.21-.52C120.24,277.31,119.85,277.41,119.37,277.05Zm1,3.13c.11-.83-.25-.63.14-1.21l-.38,0C120,277.78,121.87,280.24,120.35,280.18Zm-2.76-6c-.66.33,0-1-.69-.66.49-1.48.82-2.08,1.38-3.57.82,1.24,2-.53,2.77-.71.56.14.57,1,1.45.72-.22,1.46-.6.25-1.25.82,0,2.12,1.25.58,1.76,1.35C121.08,274,119,271.77,117.59,274.18Zm5,5.24c.54-.7.3.48.92.38C123.34,280.69,122.23,280.52,122.54,279.42Zm.17-159.88a22,22,0,0,0,0-3.05l.76.05c-.83,1.31,0,1.6,0,3.06Zm31.9,164.37c.88.16,1.39,1.13,1.93-.16,1,1.73-1.2,2.07-1.73,1.7.2.14.3-1.31-.15-.31C154.4,284.86,154.76,284.69,154.61,283.91Zm-2.13.15c-1.17.06-2.75,1-3.68.34C149.61,283,151.88,282.7,152.48,284.06Zm-5.46.82c-.11.76-.79.66-1,.23C146.27,284.6,146.79,284.38,147,284.88ZM128.19,118.72c.44-.46,1.5-.89,1.79-.48C129.68,119.51,128.72,118.83,128.19,118.72Zm2.22,160.67-.76-.06C129.63,278.16,130.69,278.24,130.41,279.39Zm1.71.13c-.1,1.47-.92.42-1.37.2C131,278.69,131.72,279.32,132.12,279.52Zm5.37-3.28c-.81,1.54-2.32,0-3.72.65C134.43,275.08,136.58,275.58,137.49,276.24Zm34.87-174.72c.58.12.15,1.53,1,1.3a1.41,1.41,0,0,1-1.41.5C171.93,102.39,172.28,102.23,172.36,101.52Zm-2-.76a2.17,2.17,0,0,1,1.57-.19,2.11,2.11,0,0,0-.3.9C171,101.45,170.73,101,170.33,100.76ZM168,112.49c-.42,0,0-1.08,0-1.53a.7.7,0,0,0,.54.35C168.56,112.14,168.07,111.89,168,112.49Zm4.44,1.55-1-.07c.31-1.3.89-.38,1.52-1.42C172.75,112.94,172.68,113.66,172.44,114Zm.61-.26.1-.91c.48-.09.35.59.92.37A.88.88,0,0,1,173.05,113.78Zm2.25-4.41c-2.29.47-3.25-.7-5.2-.08.67,1.43-.8,1.06-.31,2.72a1.94,1.94,0,0,0,1.25-.82c.56.39-.18,1.2.81,1.28-.2.85-.61,1.25-.82,2.08-.75-.16.34-1-.47-1,0-.74.43-.64.37-1.5-.31,1.11-1.29.86-1.89,1.38.61-2-.59-1.42.09-2.43.11-.65-.66-.19-.92-.38,0-.54.31-.61.33-1.19.44.13.72.65,1.15.08-.14-.51-.86-.28-.85-1,.51-.36.94,0,1.72.12-.43-.66-.28-2-1.32-1.93-.08-.92.49-.5.84-.54.22-1-.25-1,.17-1.52a1.23,1.23,0,0,1-1.52-.11c.25-1,1.1-.13.75-1.47.64-.22.54.51.65,1,.23,0,.23-.53.3-.89.38.2.35.5.09.92.41-.14.71-.82,1-.23,0,.49-.25.51-.3.89.79,1.3,2.29-.15,3.63.27,0-.58-.48-.59-.21-1.54.56.06.29,1.18,1,1-.51,1.41.52,1.16,1,1.59-.22,1.3-.69,2.09-1.59,2C175,108.73,175.53,108.55,175.3,109.37Zm.45-.58c-.48-.64.83-.78,1.1-1.14C177.32,108.29,176,108.42,175.75,108.79Zm14.41-19.37c-.06,1.12-.81.86-1.29,1.12C189,88.77,189.57,89.81,190.16,89.42Zm19-2.84c0-.72.33-1.83,1-1.76C209.9,85.52,209.88,86.73,209.19,86.58Zm.58,14.69c.61.58.49-.17,1.18-.22C211.13,102.11,209.5,102.39,209.77,101.27Zm24.23-.91c-1.43,1.8-3.8-.58-5.58-.18.07-1.19-.35-1.07-.57-.05-.11-.54.13-1.52-.15-1.85-.81,1.88-2.42-1.12-3.41.93a1.82,1.82,0,0,0-.63-.87c3.11-.64,5.88-.42,8.44,1.57a22.18,22.18,0,0,1,4.8.51,2,2,0,0,0,.08.81A1.87,1.87,0,0,1,234,100.36Zm33.64,188.07a18.79,18.79,0,0,1-4.1-.44,3.72,3.72,0,0,0,1.06-.32,1.86,1.86,0,0,0-.09-.92,1.86,1.86,0,0,1,3,.84c1.41-1.81,3.78.54,5.55.13-.06,1.18.35,1.06.57,0,.11.54-.12,1.52.16,1.84.79-1.88,2.4,1.11,3.37-1a1.83,1.83,0,0,0,.82,1C274,290.74,270.67,290.86,267.64,288.43Zm22.26-1.37a1.08,1.08,0,0,1,0,.3.79.79,0,0,0-.26-.17A.27.27,0,0,0,289.9,287.06Zm-1.2.5a.58.58,0,0,1,0-.23,2.06,2.06,0,0,1,.26.12c0-.78.25-.45.53-.3C289.27,287.16,289.18,287.53,288.7,287.56Zm.56,16.24c.28-.7.31-1.91,1-1.74C290.24,302.78,289.9,303.88,289.26,303.8Zm37.21-2.44c-.26.91,0,1.11-.05,1.82l-.76-.07c.3-.95-.56-.48-.64-1C325.64,302.28,325.48,301.16,326.47,301.36Zm-2.4.69c-.09.95-.62,1-1.11,1.13A1.37,1.37,0,0,1,324.07,302.05Zm-14.84-2.56c.08-1.12.81-.85,1.3-1.11C310.37,300.15,309.82,299.1,309.23,299.49Zm18-24.34.95.09c-.32,1.29-.88.36-1.52,1.39C326.91,276.25,327,275.53,327.24,275.15Zm-.61.25-.11.9c-.48.09-.34-.58-.91-.38A.86.86,0,0,1,326.63,275.4Zm-2.76,4.94c.47.65-.84.76-1.11,1.12C322.29,280.81,323.6,280.7,323.87,280.34Zm3.26,7.32c-.58-.12-.12-1.52-1-1.3a1.39,1.39,0,0,1,1.41-.49C327.57,286.81,327.22,287,327.13,287.66Zm2,.8a2.13,2.13,0,0,1-1.56.16,2.14,2.14,0,0,0,.31-.88C328.48,287.76,328.75,288.18,329.14,288.46Zm1.92-8.69c-.43-.13-.71-.66-1.14-.1.12.52.85.29.83,1-.52.35-.94,0-1.71-.15.41.66.24,2.05,1.28,1.95.07.92-.5.49-.84.53-.24.95.23,1-.2,1.51a1.23,1.23,0,0,1,1.52.14c-.27,1-1.1.12-.77,1.46-.64.21-.53-.52-.64-1-.23,0-.23.54-.31.89-.37-.2-.34-.51-.07-.92-.42.13-.73.8-1,.21,0-.49.25-.5.31-.89-.77-1.31-2.29.12-3.61-.33,0,.59.47.6.18,1.55-.56-.07-.27-1.19-1-1,.53-1.41-.5-1.18-.94-1.61.24-1.3.72-2.08,1.61-2,.07-.61-.47-.44-.22-1.25,2.28-.43,3.22.76,5.17.17-.65-1.45.81-1.05.36-2.72a1.91,1.91,0,0,0-1.26.8c-.56-.4.2-1.2-.79-1.29.2-.85.63-1.24.85-2.06.74.16-.36,1,.45.95,0,.74-.44.63-.39,1.5.33-1.11,1.3-.85,1.91-1.36-.65,2,.56,1.44-.13,2.44-.12.65.65.19.91.39C331.36,279.13,331.09,279.2,331.06,279.77Zm.59-3c.41,0-.06,1.08,0,1.53a.73.73,0,0,0-.53-.36C331.08,277.11,331.56,277.37,331.65,276.77Zm17.63,1.92c-.27,1.09-1,.78-1.18.2C348.21,278.22,348.93,278.83,349.28,278.69ZM347,281.23c.74.51,2.24-1,2.12,1.42-.5,0-1.15-.39-1.07.82-.61.16-.65-.38-1.1-.41C347.23,282.15,346.92,281.94,347,281.23Zm17.56-167.66c.84-1.52,2.33.09,3.75-.57C367.64,114.8,365.49,114.25,364.58,113.57ZM370,110.4c.11-1.48.93-.41,1.37-.18C371.16,111.24,370.42,110.6,370,110.4Zm-.38,161.29c.31-1.26,1.27-.56,1.79-.44C371,271.7,369.93,272.11,369.65,271.69Zm2.09-161.13.77.07C372.5,111.8,371.44,111.71,371.74,110.56Zm.47,175.12a9,9,0,0,1,.51-2.4c.74.57.65,1.18,1.36,1.35C373.73,285.55,373,285.66,372.21,285.68Zm.63,6.78c.21-1.52.6-.25,1.41-.48C373.93,293.33,373.6,292.4,372.84,292.46Zm4.06-18.88-.76-.06c.85-1.29,0-1.59,0-3.06l.76.07A20.79,20.79,0,0,0,376.9,273.58ZM382.07,139c-.75.07-.72.27-1.1-.4C381.1,137.69,382.44,137.85,382.07,139Zm3.22-25.67c.44.84-.77,1.46-1.5,1.08C383.9,113.23,385,114.17,385.29,113.33Zm-2.48-.23c-.13.77-.72.54-1.23.5C381.94,112.83,382.33,112.73,382.81,113.1Zm-.94-3.14c-.13.82.24.64-.16,1.21l.38,0C382.23,112.36,380.34,109.87,381.87,110Zm2.67,6.05c.67-.32,0,1,.69.67-.52,1.47-.85,2.07-1.44,3.54-.81-1.25-2,.49-2.79.66-.56-.15-.56-1-1.45-.74.24-1.46.61-.24,1.27-.81.06-2.11-1.25-.59-1.75-1.38C381,116.1,383.05,118.39,384.54,116Zm-4.89-5.34c-.55.7-.3-.48-.91-.39C378.87,109.39,380,109.58,379.65,110.67Zm-1.23,32.58c-.53-.31.5-.41.35-1.19a1.85,1.85,0,0,1,.56,1.58C378.67,144.09,378.7,142.44,378.42,143.25ZM380.3,148c0,.26-.11.28-.23.28l-.08.61c-.46-.36-.49-1.26-.94-1.62.05-.44.92-.88.11-.91C381.18,144.35,380.21,148.18,380.3,148Zm2.64,120.63c-.67-.35-.9-1.23-2-1.09.15-.9-.49-1.92.27-2.12.53.2.4,1.2.52,1.88l1.14.11C382.82,268,383.06,268.08,382.94,268.64Zm.95-4.19c-.36-.31-.46-.94-.33-1.86l.57.05Zm23.45-81.86c-.48.08-.34-.58-.91-.39C406.56,181.31,407.67,181.5,407.34,182.59ZM406.4,181c.37-2.32,1.45,0,0,0Zm-8.24-.46.17-1.21c.21.07.34,0,.42-.26C399.14,179.31,398.61,180.78,398.16,180.52Zm-.3-10.72.76.07-.16,1.21C397.84,171.16,397.64,170.74,397.86,169.8Zm2.81-21.13c.48,0,.53.53.87.69-.17,1.13-1.94,0-1.41.48-.28.72-.7-.46-.64-1,.22-.3,1-.19.87.69C400.59,149.53,400.59,149,400.67,148.67Zm-.29-2.17c0,.52-.22.56-.46.57a1.45,1.45,0,0,0,.49.66c-.12.77-.8.65-1,.21C399.77,147.54,399.78,146.38,400.38,146.5Zm-.52-1.88c-.69.18-.76-.41-1.06-.71C399.06,143.29,400.24,143.63,399.86,144.62ZM398.59,157c.65-.21.53.52.88.69C399.22,158.4,398.25,157.91,398.59,157Zm-2.23,8c.77,0-.12.45.26.94.71-.31,1.81.06,2.14-.11.07.92-.49.5-.84.53,0,1.22.77,1.41,1.74,1.39-.28,1-.81,1.14-.81,1.76-.52-.45,0-.69-1.1-.41.14-.61.59-.55.73-1.15-1,.84-2.13,1.18-3.13.32a6.83,6.83,0,0,0,2.49-1.3c-.54-.76-3.06.72-3.12-1.21C395.34,165.17,396,166.49,396.36,165.08Zm-4.13,2.06c.78.3,1,.59.88-.84.52.26.55,1.59,1.11.41.67-.06.45,1,.79,1.3-.55.25-1,.76-1.65.76C394.14,166.34,392.07,168.9,392.23,167.14Zm-2.79,12.27c.22-.66,1-.92,1.22-.5C390.56,180.21,389.86,179.66,389.44,179.41Zm2.08-1.88a.77.77,0,0,0-.07-.2l.23-1.69a.62.62,0,0,1-.94-.07.51.51,0,0,0-.54-.38c.62-1.18-.34-.6-.15-1.83.51.47.59,1.46,1.1,1.93.33.07.45-.33.8-.23a1.9,1.9,0,0,0-.18-1.55c-.3.11,0,.4-.12.91-.35,0-.35-.41-.73-.38,0-.94.71-.3.59-1.47-.11-.94-.79.38-.92-.39.16-1.09,1.37.06,1.35-1.4.61-.17.65.37,1.1.41.31-.89-.35-.58-.68-.68l.16-1.2a2.28,2.28,0,0,1,1.49.44c.17-.09.62-.79.36-.91a2.37,2.37,0,0,1,2.45,1.47c.68,0-.16-1.36.36-1.18a5.29,5.29,0,0,1,.21,2.77c-1.19-.4-1.73-1.58-2.81-2.1.05.95.76,1.09,1.36,1.35-.51,1.08,0,.76.41,1.26-.53,1.46-1.46.47-2.4.69.22,1.14,1.66,1.14,2.81.57,0,1-.67.63-.62,1.78.33.56.55.07,1.14.11-.16,1.21-1.1.74-1.83.74.4-.17.79-1.32.2-1.51-.86,1.16-1.68.76-2.76,1.88.58,1,1.43-.81,2.37-.39-.53.92.24.08.45,1-.15,1-.46,1.6-1,1.74.12-.26.24-.53.46-.57C393.4,177.22,392.2,178.29,391.52,177.53Zm5.08,76.79c0-1.17,1.07-1.07.76.07Zm.47,3.71a2.75,2.75,0,0,1,0-1.52c.83-.28.66.7,1.25.73A1.94,1.94,0,0,1,397.07,258Zm.3-25.33c-.62.35-1,.22-1.29-.43-.6.15.1.67-.16,1.21a3.25,3.25,0,0,1-1.24-2.25c1.94.41,2.7-.06,3.95.67,0-.36-.31-.29-.53-.36,1.76-2.71,2.16.3,4.73-.78a10.81,10.81,0,0,1,.06,2.45c.22-.18.29-.67.65-.55-.8,1.47.33,1.67.17,3.07C401.59,234.61,397.89,235.88,397.37,232.7Zm6.95,23c-.72-.11-1.49-.32-1.65.76-.6.17-.65-.37-1.1-.4A4.94,4.94,0,0,1,403,254.3c.06-1.4-.7.4-.72-.37,0-1.16.95-.3,1.41-.48C403.41,254.75,404.47,254.46,404.32,255.65Zm3.06-21.41c-.95,1.1-1.78-.05-2.22.71-.49-.31-.47-1.27-.48-2.18-.77.63-1.18.39-1.21-1,.31-.37.76-.34.72.37.65-.65-.76-.89-.28-2.17,1.27,1.07,3.07-.43,4.25,1.32-.14,1-.27,2,.52,1.88-.48,1-.17,1.45-.36,2.72C407.8,235.57,407.76,234.69,407.38,234.24Zm1.66,6.27a2.79,2.79,0,0,0,.32-2.42c-.66.26-1,.84-1.33-.12.38-1.32.91-.29,1.46-.78.08-.78-.65-.55-.83-1a2.14,2.14,0,0,1,1.38-1.7c.66,2-.22,3,.45,5.24C409.68,239.29,409.89,241,409,240.51Z"/></clipPath><clipPath id="clip-path-2" transform="translate(-50.28 -77.18)"><rect class="cls-1" x="50.28" y="77.18" width="401.39" height="234.13"/></clipPath></defs><title>English</title><g class="cls-2"><g id="UNITED_KINGDOM" data-name="UNITED KINGDOM"><g class="cls-3"><rect class="cls-4" width="401.39" height="234.13"/><polygon class="cls-5" points="268.76 84.65 401.39 10.41 401.39 0 392.24 0 241.02 84.65 268.76 84.65"/><polygon class="cls-5" points="262.5 154.18 401.39 231.9 401.39 216.37 290.25 154.18 262.5 154.18"/><polygon class="cls-5" points="0 17.82 118.81 84.65 146.57 84.65 0 2.28 0 17.82"/><polygon class="cls-5" points="140.28 154.18 0 232.78 0 234.13 25.34 234.13 168.05 154.18 140.28 154.18"/><polygon class="cls-6" points="373.92 0 233.38 0 233.38 78.7 373.92 0"/><polygon class="cls-6" points="171.33 0 31.36 0 171.33 78.7 171.33 0"/><polygon class="cls-6" points="401.39 84.65 401.39 30.94 306.05 84.65 401.39 84.65"/><polygon class="cls-6" points="401.39 207.31 401.39 154.18 306.05 154.18 401.39 207.31"/><polygon class="cls-6" points="39.3 234.13 171.33 234.13 171.33 160.14 39.3 234.13"/><polygon class="cls-6" points="233.38 234.13 365.84 234.13 233.38 160.14 233.38 234.13"/><polygon class="cls-6" points="0 154.18 0 209.71 98.65 154.18 0 154.18"/><polygon class="cls-6" points="0 84.65 98.65 84.65 0 29.03 0 84.65"/><polygon class="cls-5" points="183.75 0 183.75 98.56 0 98.56 0 140.3 183.75 140.3 183.75 234.13 220.97 234.13 220.97 140.3 401.39 140.3 401.39 98.56 220.97 98.56 220.97 0 183.75 0"/></g></g></g><text x="-50.28" y="-77.18"/><text x="-50.28" y="-77.18"/></svg>