<?xml version="1.0"?>
<svg xmlns="http://www.w3.org/2000/svg" xmlns:xlink="http://www.w3.org/1999/xlink" xmlns:svgjs="http://svgjs.com/svgjs" version="1.1" width="512" height="512" x="0" y="0" viewBox="0 0 74 74" style="enable-background:new 0 0 512 512" xml:space="preserve" class=""><g><path xmlns="http://www.w3.org/2000/svg" d="m69.927 47.32-.953-.3c.286-.909.535-1.837.738-2.758l.976.216c-.209.949-.465 1.905-.761 2.842z" fill="#4c456f" data-original="#000000" style="" class=""/><path xmlns="http://www.w3.org/2000/svg" d="m37 71.5a34.5 34.5 0 1 1 32.815-45.174l-.951.308a33.495 33.495 0 1 0 -2.649 26.781l.871.491a34.584 34.584 0 0 1 -30.086 17.594z" fill="#4c456f" data-original="#000000" style="" class=""/><path xmlns="http://www.w3.org/2000/svg" d="m71.5 37.32h-1v-.32c0-.918-.04-1.846-.118-2.757l1-.086c.081.94.122 1.9.122 2.843z" fill="#4c456f" data-original="#000000" style="" class=""/><path xmlns="http://www.w3.org/2000/svg" d="m69.45 48.17a1.024 1.024 0 0 1 -.3-.046 1 1 0 0 1 -.653-1.255c.282-.9.527-1.808.728-2.715a1 1 0 0 1 1.953.432c-.213.963-.473 1.934-.773 2.885a1 1 0 0 1 -.955.699z" fill="#4c456f" data-original="#000000" style="" class=""/><path xmlns="http://www.w3.org/2000/svg" d="m37 72a35 35 0 1 1 33.291-45.829 1 1 0 1 1 -1.9.618 33 33 0 1 0 -2.61 26.38 1 1 0 1 1 1.742.982 35.082 35.082 0 0 1 -30.523 17.849z" fill="#4c456f" data-original="#000000" style="" class=""/><path xmlns="http://www.w3.org/2000/svg" d="m71 38.32a1 1 0 0 1 -1-1v-.32c0-.9-.039-1.817-.116-2.714a1 1 0 0 1 .91-1.082.988.988 0 0 1 1.082.91c.082.954.124 1.925.124 2.886v.32a1 1 0 0 1 -1 1z" fill="#4c456f" data-original="#000000" style="" class=""/><path xmlns="http://www.w3.org/2000/svg" d="m37 64a27 27 0 1 1 27-27 27.03 27.03 0 0 1 -27 27zm0-52a25 25 0 1 0 25 25 25.028 25.028 0 0 0 -25-25z" fill="#4c456f" data-original="#000000" style="" class=""/><path xmlns="http://www.w3.org/2000/svg" d="m37 46.362a1 1 0 0 1 -1-1c0-4.4 2.356-6.558 5.437-8.93a7.314 7.314 0 0 0 2.681-7.352 7.24 7.24 0 0 0 -5.54-5.54 7.353 7.353 0 0 0 -6.168 1.46 7.26 7.26 0 0 0 -2.692 5.654 1 1 0 0 1 -2 0 9.285 9.285 0 1 1 14.939 7.36c-3.22 2.486-4.657 4.131-4.657 7.348a1 1 0 0 1 -1 1z" fill="#4c456f" data-original="#000000" style="" class=""/><path xmlns="http://www.w3.org/2000/svg" d="m37 52.625a1 1 0 0 1 -1-1v-.512a1 1 0 0 1 2 0v.512a1 1 0 0 1 -1 1z" fill="#4c456f" data-original="#000000" style="" class=""/></g></svg>
