<?xml version="1.0"?>
<svg xmlns="http://www.w3.org/2000/svg" xmlns:xlink="http://www.w3.org/1999/xlink" xmlns:svgjs="http://svgjs.com/svgjs" version="1.1" width="512" height="512" x="0" y="0" viewBox="0 0 74 74" style="enable-background:new 0 0 512 512" xml:space="preserve" class=""><g><path xmlns="http://www.w3.org/2000/svg" d="m11 48.44a1 1 0 0 1 -1-1v-2.97a1 1 0 0 1 2 0v2.97a1 1 0 0 1 -1 1z" fill="#4c456f" data-original="#000000" style=""/><path xmlns="http://www.w3.org/2000/svg" d="m63 72h-52a1 1 0 0 1 -1-1v-16.56a1 1 0 0 1 2 0v15.56h50v-50.345l-15.664-15.655h-34.336v23.56a1 1 0 1 1 -2 0v-24.56a1 1 0 0 1 1-1h35.75a1 1 0 0 1 .707.292l16.25 16.241a1 1 0 0 1 .293.707v51.76a1 1 0 0 1 -1 1z" fill="#4c456f" data-original="#000000" style=""/><path xmlns="http://www.w3.org/2000/svg" d="m11 38.47a1 1 0 0 1 -1-1v-2.91a1 1 0 0 1 2 0v2.91a1 1 0 0 1 -1 1z" fill="#4c456f" data-original="#000000" style=""/><path xmlns="http://www.w3.org/2000/svg" d="m63 20.24h-16.25a1 1 0 0 1 -1-1v-16.24a1 1 0 0 1 2 0v15.24h15.25a1 1 0 0 1 0 2z" fill="#4c456f" data-original="#000000" style=""/><path xmlns="http://www.w3.org/2000/svg" d="m40 14h-23a1 1 0 0 1 0-2h23a1 1 0 0 1 0 2z" fill="#4c456f" data-original="#000000" style=""/><path xmlns="http://www.w3.org/2000/svg" d="m40 21h-23a1 1 0 0 1 0-2h23a1 1 0 0 1 0 2z" fill="#4c456f" data-original="#000000" style=""/><path xmlns="http://www.w3.org/2000/svg" d="m37 63.628a.993.993 0 0 1 -.513-.142c-8.78-5.251-13.232-12.386-13.232-21.207v-7.974a1 1 0 0 1 .68-.947l12.745-4.3a.988.988 0 0 1 .64 0l12.745 4.3a1 1 0 0 1 .68.947v7.974c0 8.822-4.452 15.956-13.232 21.207a.993.993 0 0 1 -.513.142zm-11.745-28.6v7.256c0 7.9 3.951 14.347 11.745 19.178 7.794-4.831 11.745-11.281 11.745-19.178v-7.261l-11.745-3.967z" fill="#4c456f" data-original="#000000" style=""/><path xmlns="http://www.w3.org/2000/svg" d="m34.444 49.708a1 1 0 0 1 -.707-.292l-3.159-3.16a1 1 0 0 1 1.414-1.414l2.452 2.452 7.564-7.564a1 1 0 1 1 1.414 1.415l-8.271 8.271a1 1 0 0 1 -.707.292z" fill="#4c456f" data-original="#000000" style=""/></g></svg>
