<?xml version="1.0"?>
<svg xmlns="http://www.w3.org/2000/svg" xmlns:xlink="http://www.w3.org/1999/xlink" xmlns:svgjs="http://svgjs.com/svgjs" version="1.1" width="512" height="512" x="0" y="0" viewBox="0 0 74 74" style="enable-background:new 0 0 512 512" xml:space="preserve" class=""><g transform="matrix(-1.8369701987210297e-16,-1,1,-1.8369701987210297e-16,-0.0015993118286132812,74.01519107818605)"><path xmlns="http://www.w3.org/2000/svg" d="M18.7,48.3a1,1,0,0,1-.752-.34c-.659-.75-1.307-1.49-1.916-2.24a1,1,0,1,1,1.554-1.26c.592.73,1.223,1.45,1.864,2.18a1,1,0,0,1-.75,1.66Z" fill="#4c456f" data-original="#000000" style="" class=""/><path xmlns="http://www.w3.org/2000/svg" d="M57.45,72c-7.266,0-17.111-4.474-27.009-12.274a1,1,0,1,1,1.238-1.572C41.09,65.572,50.725,70,57.45,70a8.847,8.847,0,0,0,6.485-2.249l5.7-5.708A1.238,1.238,0,0,0,70,61.158a1.214,1.214,0,0,0-.363-.866L55.763,46.407a1.251,1.251,0,0,0-1.756,0l-4.27,4.27c-3.358,3.358-11.792.191-19.2-7.21s-10.569-15.846-7.211-19.2l4.27-4.27a1.251,1.251,0,0,0,0-1.76L13.713,4.368A1.219,1.219,0,0,0,12.842,4h0a1.235,1.235,0,0,0-.88.367l-5.713,5.7c-4.7,4.7-1.864,16.3,7.051,28.872A1,1,0,1,1,11.664,40.1C2.017,26.494-.665,14.15,4.833,8.653l5.71-5.7A3.222,3.222,0,0,1,12.838,2h.01a3.2,3.2,0,0,1,2.283.957L29.007,16.822a3.258,3.258,0,0,1,0,4.585l-4.27,4.27C22.573,27.841,25,35.1,31.948,42.053s14.211,9.374,16.375,7.21l4.27-4.27a3.255,3.255,0,0,1,4.58,0L71.047,58.873A3.2,3.2,0,0,1,72,61.152a3.231,3.231,0,0,1-.953,2.306l-5.7,5.707A10.759,10.759,0,0,1,57.45,72Z" fill="#4c456f" data-original="#000000" style="" class=""/><path xmlns="http://www.w3.org/2000/svg" d="M25.709,55.39a.994.994,0,0,1-.669-.258q-1.095-.988-2.192-2.07a1,1,0,1,1,1.4-1.424q1.064,1.049,2.128,2.01a1,1,0,0,1-.671,1.742Z" fill="#4c456f" data-original="#000000" style="" class=""/><path xmlns="http://www.w3.org/2000/svg" d="M24.033,25.966a1,1,0,0,1-.707-.293L6.28,8.626A1,1,0,0,1,7.694,7.212L24.74,24.259a1,1,0,0,1-.707,1.707Z" fill="#4c456f" data-original="#000000" style="" class=""/><path xmlns="http://www.w3.org/2000/svg" d="M66.081,68.013a1,1,0,0,1-.707-.293L48.327,50.674a1,1,0,0,1,1.414-1.414L66.788,66.306a1,1,0,0,1-.707,1.707Z" fill="#4c456f" data-original="#000000" style="" class=""/><path xmlns="http://www.w3.org/2000/svg" d="M71,34.889a1,1,0,0,1-1-1A29.923,29.923,0,0,0,40.111,4a1,1,0,0,1,0-2A31.925,31.925,0,0,1,72,33.889,1,1,0,0,1,71,34.889Z" fill="#4c456f" data-original="#000000" style="" class=""/><path xmlns="http://www.w3.org/2000/svg" d="M60,34.889a1,1,0,0,1-1-1A18.911,18.911,0,0,0,40.111,15a1,1,0,0,1,0-2A20.913,20.913,0,0,1,61,33.889,1,1,0,0,1,60,34.889Z" fill="#4c456f" data-original="#000000" style="" class=""/><path xmlns="http://www.w3.org/2000/svg" d="M49,34.889a1,1,0,0,1-1-1A7.9,7.9,0,0,0,40.111,26a1,1,0,1,1,0-2A9.9,9.9,0,0,1,50,33.889,1,1,0,0,1,49,34.889Z" fill="#4c456f" data-original="#000000" style="" class=""/></g></svg>
